<svg width="25" height="24" viewBox="0 0 25 24" fill="none" xmlns="http://www.w3.org/2000/svg">
<path opacity="0.8" d="M20.3314 16.811C20.0545 17.4565 19.7124 18.072 19.3104 18.648C18.7734 19.415 18.3324 19.945 17.9944 20.24C17.4694 20.722 16.9054 20.97 16.3024 20.984C15.8704 20.984 15.3484 20.861 14.7404 20.611C14.1304 20.362 13.5704 20.24 13.0574 20.24C12.5204 20.24 11.9444 20.362 11.3274 20.611C10.7114 20.861 10.2134 20.992 9.8324 21.004C9.2554 21.029 8.6784 20.775 8.1034 20.24C7.7364 19.92 7.2774 19.37 6.7264 18.592C6.1364 17.763 5.6514 16.798 5.2714 15.701C4.8644 14.514 4.6604 13.366 4.6604 12.254C4.6604 10.981 4.9354 9.88202 5.4864 8.96202C5.90315 8.23949 6.49895 7.63646 7.2164 7.21102C7.92387 6.78669 8.73149 6.55821 9.5564 6.54902C10.0164 6.54902 10.6194 6.69102 11.3664 6.97102C12.1134 7.25102 12.5934 7.39302 12.8024 7.39302C12.9604 7.39302 13.4914 7.22602 14.3954 6.89502C15.2484 6.58802 15.9684 6.46102 16.5584 6.51102C18.1584 6.64002 19.3594 7.27002 20.1584 8.40602C18.7284 9.27302 18.0214 10.486 18.0354 12.043C18.0474 13.256 18.4884 14.265 19.3524 15.066C19.7344 15.4316 20.1801 15.7241 20.6674 15.929C20.5614 16.236 20.4494 16.529 20.3314 16.811ZM16.6644 2.38002C16.6644 3.33002 16.3164 4.21802 15.6254 5.03902C14.7894 6.01502 13.7794 6.58002 12.6844 6.49102C12.6701 6.37156 12.6631 6.25134 12.6634 6.13102C12.6634 5.21802 13.0594 4.24202 13.7664 3.44302C14.1184 3.03902 14.5664 2.70202 15.1094 2.43402C15.6514 2.17002 16.1634 2.02402 16.6454 1.99902C16.6584 2.12702 16.6644 2.25402 16.6644 2.38002Z" fill="white"/>
</svg>
