<svg width="17" height="20" viewBox="0 0 17 20" fill="none" xmlns="http://www.w3.org/2000/svg">
<path d="M15.9149 14.811C15.638 15.4565 15.2959 16.072 14.8939 16.648C14.3569 17.415 13.9159 17.945 13.5779 18.24C13.0529 18.722 12.4889 18.97 11.8859 18.984C11.4539 18.984 10.9319 18.861 10.3239 18.611C9.7139 18.362 9.1539 18.24 8.6409 18.24C8.1039 18.24 7.5279 18.362 6.9109 18.611C6.2949 18.861 5.7969 18.992 5.4159 19.004C4.8389 19.029 4.2619 18.775 3.6869 18.24C3.3199 17.92 2.8609 17.37 2.3099 16.592C1.7199 15.763 1.2349 14.798 0.854897 13.701C0.447897 12.514 0.243896 11.366 0.243896 10.254C0.243896 8.98102 0.518897 7.88202 1.0699 6.96202C1.48664 6.23949 2.08244 5.63646 2.7999 5.21102C3.50736 4.78669 4.31498 4.55821 5.1399 4.54902C5.5999 4.54902 6.2029 4.69102 6.9499 4.97102C7.6969 5.25102 8.1769 5.39302 8.3859 5.39302C8.5439 5.39302 9.0749 5.22602 9.9789 4.89502C10.8319 4.58802 11.5519 4.46102 12.1419 4.51102C13.7419 4.64002 14.9429 5.27002 15.7419 6.40602C14.3119 7.27302 13.6049 8.48602 13.6189 10.043C13.6309 11.256 14.0719 12.265 14.9359 13.066C15.3179 13.4316 15.7636 13.7241 16.2509 13.929C16.1449 14.236 16.0329 14.529 15.9149 14.811ZM12.2479 0.380024C12.2479 1.33002 11.8999 2.21802 11.2089 3.03902C10.3729 4.01502 9.3629 4.58002 8.2679 4.49102C8.25357 4.37156 8.24656 4.25134 8.2469 4.13102C8.2469 3.21802 8.6429 2.24202 9.3499 1.44302C9.7019 1.03902 10.1499 0.702024 10.6929 0.434023C11.2349 0.170024 11.7469 0.0240234 12.2289 -0.000976562C12.2419 0.127023 12.2479 0.254024 12.2479 0.380024Z" fill="#516176"/>
</svg>
