<svg width="18" height="22" viewBox="0 0 18 22" fill="none" xmlns="http://www.w3.org/2000/svg">
<path d="M14.9008 11.6924C14.9225 10.0114 15.8253 8.42079 17.2574 7.54033C16.3539 6.25001 14.8407 5.43191 13.2662 5.38265C11.587 5.20639 9.95905 6.38748 9.10334 6.38748C8.23107 6.38748 6.91357 5.40015 5.49484 5.42934C3.64559 5.48908 1.92162 6.54047 1.02192 8.15721C-0.912076 11.5056 0.530513 16.4267 2.38312 19.1333C3.31002 20.4586 4.3933 21.9391 5.81075 21.8866C7.19781 21.8291 7.71585 21.0021 9.39015 21.0021C11.0489 21.0021 11.5349 21.8866 12.9812 21.8532C14.4695 21.829 15.4073 20.522 16.3017 19.1841C16.9676 18.2397 17.4801 17.196 17.8201 16.0916C16.071 15.3518 14.9029 13.5915 14.9008 11.6924Z" fill="white"/>
<path d="M12.1692 3.60265C12.9807 2.62844 13.3805 1.37626 13.2837 0.11203C12.0439 0.242251 10.8986 0.834809 10.0761 1.77164C9.27184 2.68697 8.85328 3.91712 8.93241 5.13303C10.1727 5.1458 11.392 4.5693 12.1692 3.60265Z" fill="white"/>
</svg>
