<svg width="32" height="24" viewBox="0 0 32 24" fill="none" xmlns="http://www.w3.org/2000/svg">
<rect x="0.5" y="1.07143" width="31" height="21.8571" rx="3.5" fill="white" stroke="#979797"/>
<mask id="mask0_2925_343" style="mask-type:alpha" maskUnits="userSpaceOnUse" x="0" y="0" width="32" height="24">
<rect y="0.571426" width="32" height="22.8571" rx="4" fill="white"/>
</mask>
<g mask="url(#mask0_2925_343)">
<path fill-rule="evenodd" clip-rule="evenodd" d="M0 15.8095H32V0.571426H0V15.8095Z" fill="#E54252"/>
<path fill-rule="evenodd" clip-rule="evenodd" d="M0 23.4286H32V15.8095H0V23.4286Z" fill="#5CBE6B"/>
<path fill-rule="evenodd" clip-rule="evenodd" d="M0 0.571426H4.57143V4L3.80952 5.14285L4.57143 6.28571V8.57143L3.80952 9.71428L4.57143 10.8571V13.1429L3.80952 14.2857L4.57143 15.4286V17.7143L3.80952 18.8571L4.57143 20V23.4286H0V0.571426Z" fill="white"/>
<path fill-rule="evenodd" clip-rule="evenodd" d="M-0.761957 2.85714L-2.28577 5.14285L-0.761957 7.42857L-2.28577 9.71428L-0.761957 12L-2.28577 14.2857L-0.761957 16.5714L-2.28577 18.8571L-0.761957 21.1429L0.761853 18.8571L-0.761957 16.5714L0.761853 14.2857L-0.761957 12L0.761853 9.71428L-0.761957 7.42857L0.761853 5.14285L-0.761957 2.85714Z" fill="#E54252"/>
<path fill-rule="evenodd" clip-rule="evenodd" d="M0.761963 2.85714L2.28577 0.571426L3.80958 2.85714L2.28577 5.14286L0.761963 2.85714ZM2.28577 9.71428L0.761963 7.42857L2.28577 5.14286L3.80958 7.42857L2.28577 9.71428ZM2.28577 14.2857L0.761963 12L2.28577 9.71428L3.80958 12L2.28577 14.2857ZM2.28577 14.2857L3.80958 16.5714L2.28577 18.8571L0.761963 16.5714L2.28577 14.2857ZM2.28577 18.8571L0.761963 21.1429L2.28577 23.4286L3.80958 21.1429L2.28577 18.8571Z" fill="#E54252"/>
</g>
</svg>
