<svg width="477" height="446" viewBox="0 0 477 446" fill="none" xmlns="http://www.w3.org/2000/svg">
<g clip-path="url(#clip0_2882_478)">
<g clip-path="url(#clip1_2882_478)">
<path d="M244.352 402.089C346.107 385.566 415.209 289.637 398.694 187.827C382.18 86.0165 286.304 16.8776 184.548 33.4007C82.7929 49.9239 13.6913 145.852 30.2056 247.663C46.7198 349.473 142.596 418.612 244.352 402.089Z" fill="#FDE3A7"/>
</g>
<path d="M477 357.802C477 354.947 474.661 352.606 471.807 352.606H311.087C308.233 352.606 305.894 354.947 305.894 357.802C305.894 360.658 308.233 362.998 311.087 362.998H471.824C474.661 362.998 477 360.658 477 357.802Z" fill="#CCCFD3"/>
<path d="M139.997 357.802C139.997 354.947 137.658 352.606 134.804 352.606H5.19314C2.33944 352.606 6.10352e-05 354.947 6.10352e-05 357.802C6.10352e-05 360.658 2.33944 362.998 5.19314 362.998H134.821C137.658 362.998 139.997 360.658 139.997 357.802Z" fill="#CCCFD3"/>
<path d="M331.826 362.998C331.826 357.288 327.164 352.623 321.457 352.623H103.696C97.9883 352.623 93.3262 357.288 93.3262 362.998C93.3262 368.709 97.9883 373.374 103.696 373.374H321.457C327.164 373.374 331.826 368.692 331.826 362.998Z" fill="#CCCFD3"/>
<path d="M76.8842 214.708C68.7876 206.607 55.6473 206.607 47.5507 214.708C39.4542 222.809 39.4542 235.956 47.5507 244.057C55.6473 252.158 82.9566 250.133 82.9566 250.133C82.9566 250.133 84.9807 222.809 76.8842 214.708ZM56.5598 235.043C48.4633 226.942 52.7936 219.953 52.7936 219.953C52.7936 219.953 55.863 219.538 63.9595 227.639C72.0561 235.74 75.4076 246.365 75.4076 246.365C75.4076 246.365 64.6564 243.144 56.5598 235.043Z" fill="#0379F7"/>
<path d="M118.362 214.708C110.266 206.607 97.1256 206.607 89.029 214.708C80.9325 222.809 82.9566 250.133 82.9566 250.133C82.9566 250.133 110.266 252.158 118.362 244.057C126.459 235.956 126.459 222.809 118.362 214.708ZM109.353 235.043C101.257 243.144 90.6384 246.497 90.6384 246.497C90.6384 246.497 93.8571 235.74 101.954 227.639C110.05 219.538 117.035 223.871 117.035 223.871C117.035 223.871 117.45 226.942 109.353 235.043Z" fill="#0379F7"/>
<path d="M118.362 214.708C110.266 206.607 97.1256 206.607 89.029 214.708C80.9325 222.809 82.9566 250.133 82.9566 250.133C82.9566 250.133 110.266 252.158 118.362 244.057C126.459 235.956 126.459 222.809 118.362 214.708ZM109.353 235.043C101.257 243.144 90.6384 246.497 90.6384 246.497C90.6384 246.497 93.8571 235.74 101.954 227.639C110.05 219.538 117.035 223.871 117.035 223.871C117.035 223.871 117.45 226.942 109.353 235.043Z" fill="black" fill-opacity="0.2"/>
<path d="M82.9566 266.716C89.8289 266.716 95.4001 261.142 95.4001 254.266C95.4001 247.39 89.8289 241.816 82.9566 241.816C76.0843 241.816 70.5131 247.39 70.5131 254.266C70.5131 261.142 76.0843 266.716 82.9566 266.716Z" fill="#0379F7"/>
<path d="M140.197 254.266H103.696V358.018H140.197C142.934 358.018 145.174 355.777 145.174 353.038V259.246C145.174 256.507 142.934 254.266 140.197 254.266Z" fill="#FF823B"/>
<path d="M25.7166 254.266C22.979 254.266 20.7392 256.507 20.7392 259.246V353.038C20.7392 355.777 22.979 358.018 25.7166 358.018H103.696V254.266H25.7166Z" fill="#FFB43B"/>
<path d="M145.174 308.217H103.696V324.818H145.174V308.217Z" fill="#6D2E66"/>
<path d="M131.071 254.266H124.435V358.018H131.071V254.266Z" fill="#6D2E66"/>
<path d="M103.696 308.217H20.7392V324.818H103.696V308.217Z" fill="#0379F7"/>
<path d="M70.5131 254.266H53.9218V358.018H70.5131V254.266Z" fill="#0379F7"/>
<path d="M238.5 362.998H295.74C298.478 362.998 300.717 360.757 300.717 358.018V217.746H238.5V362.998Z" fill="#D41424"/>
<path d="M259.239 362.998V217.746H114.065V358.018C114.065 360.757 116.305 362.998 119.043 362.998H259.239Z" fill="#ED3024"/>
<path d="M300.717 285.176H259.239V305.927H300.717V285.176Z" fill="#D8D8D8"/>
<path d="M259.239 285.176H114.065V305.927H259.239V285.176Z" fill="white"/>
<path d="M193.704 217.746H172.964V362.998H193.704V217.746Z" fill="white"/>
<path d="M300.717 217.746L317.939 200.515C319.88 198.572 319.217 196.995 316.479 196.995H284.956C282.218 196.995 278.386 198.589 276.461 200.515L259.239 217.746H300.717Z" fill="#AD0F24"/>
<path d="M114.065 217.746L96.8435 200.515C94.9023 198.572 95.566 196.995 98.3035 196.995H233.523C236.26 196.995 240.093 198.589 242.017 200.515L259.239 217.746H114.065Z" fill="#D41424"/>
<path d="M152.225 196.995H172.964L193.704 217.746H172.964L152.225 196.995Z" fill="#D8D8D8"/>
<path d="M286.615 217.746H279.978V362.998H286.615V217.746Z" fill="#D8D8D8"/>
<path d="M307.354 196.995H300.717L279.978 217.746H286.615L307.354 196.995Z" fill="#D8D8D8"/>
<path d="M131.635 4.98022C133.012 4.98022 134.124 6.09244 134.124 7.47027C134.124 12.2346 130.773 14.5586 128.085 16.4344C125.596 18.1609 124.169 19.2565 124.169 21.3149C124.169 23.3733 125.58 24.4524 128.085 26.1954C130.773 28.0712 134.124 30.3953 134.124 35.1596C134.124 39.9238 130.773 42.2479 128.085 44.1237C125.596 45.8501 124.169 46.9292 124.169 48.9876C124.169 50.3654 123.058 51.4776 121.681 51.4776C120.304 51.4776 119.192 50.3654 119.192 48.9876C119.192 44.2233 122.543 41.8993 125.231 40.0234C127.72 38.297 129.147 37.218 129.147 35.1596C129.147 33.1011 127.736 32.0221 125.231 30.2791C122.527 28.4032 119.192 26.0792 119.192 21.3149C119.192 16.5506 122.543 14.2266 125.231 12.3508C127.72 10.6077 129.147 9.5287 129.147 7.47027C129.147 6.09244 130.258 4.98022 131.635 4.98022Z" fill="#ED3024"/>
<path d="M237.803 73.0409C236.426 73.0409 235.314 71.9286 235.314 70.5508C235.314 65.7865 238.666 63.4625 241.354 61.5867C243.842 59.8602 245.269 58.7646 245.269 56.7062C245.269 54.6477 243.859 53.5687 241.354 51.8257C238.666 49.9499 235.314 47.6258 235.314 42.8615C235.314 38.0973 238.666 35.7732 241.354 33.8974C243.842 32.171 245.269 31.0919 245.269 29.0335C245.269 27.6557 246.381 26.5435 247.758 26.5435C249.135 26.5435 250.247 27.6557 250.247 29.0335C250.247 33.7978 246.895 36.1218 244.207 37.9977C241.719 39.7241 240.292 40.8031 240.292 42.8615C240.292 44.92 241.702 45.999 244.207 47.742C246.912 49.6179 250.247 51.9419 250.247 56.7062C250.247 61.4705 246.895 63.7945 244.207 65.6703C241.719 67.3968 240.292 68.4924 240.292 70.5508C240.292 71.9286 239.18 73.0409 237.803 73.0409Z" fill="#F8ACA7"/>
<path d="M273.474 46.4806C272.097 46.4806 270.986 45.3683 270.986 43.9905C270.986 39.2262 274.337 36.9022 277.025 35.0264C279.514 33.2999 280.94 32.2043 280.94 30.1459C280.94 28.0874 279.53 27.0084 277.025 25.2654C274.337 23.3896 270.986 21.0655 270.986 16.3012C270.986 11.537 274.337 9.21292 277.025 7.33708C279.514 5.61065 280.94 4.53163 280.94 2.4732C280.94 1.09537 282.052 -0.0168457 283.429 -0.0168457C284.806 -0.0168457 285.918 1.09537 285.918 2.4732C285.918 7.23748 282.566 9.56152 279.879 11.4374C277.39 13.1638 275.963 14.2428 275.963 16.3012C275.963 18.3597 277.373 19.4387 279.879 21.1817C282.583 23.0576 285.918 25.3816 285.918 30.1459C285.918 34.9102 282.566 37.2342 279.879 39.11C277.39 40.8365 275.963 41.9321 275.963 43.9905C275.963 45.3683 274.851 46.4806 273.474 46.4806Z" fill="#0379F7"/>
<path d="M184.164 157.703C182.786 157.703 181.675 156.59 181.675 155.213C181.675 150.448 185.026 148.124 187.714 146.249C190.219 144.522 191.63 143.426 191.63 141.385C191.63 139.326 190.219 138.247 187.714 136.504C185.026 134.628 181.675 132.304 181.675 127.54C181.675 122.776 185.026 120.452 187.731 118.576C190.219 116.849 191.63 115.77 191.63 113.712C191.63 112.334 192.741 111.222 194.118 111.222C195.495 111.222 196.607 112.334 196.607 113.712C196.607 118.476 193.256 120.8 190.568 122.676C188.079 124.403 186.652 125.482 186.652 127.54C186.652 129.598 188.062 130.677 190.568 132.42C193.256 134.296 196.607 136.62 196.607 141.385C196.607 146.149 193.256 148.473 190.568 150.349C188.062 152.092 186.652 153.171 186.652 155.229C186.652 156.591 185.541 157.703 184.164 157.703Z" fill="#ED3024"/>
<path d="M261.031 190.903C259.654 190.903 258.542 189.791 258.542 188.413C258.542 187.152 257.895 186.521 256.186 185.176C254.378 183.765 251.906 181.839 251.906 178.021C251.906 174.22 254.378 172.278 256.186 170.867C257.895 169.522 258.542 168.908 258.542 167.646C258.542 166.385 257.895 165.77 256.186 164.426C254.378 163.015 251.906 161.089 251.906 157.271C251.906 153.47 254.378 151.527 256.186 150.133C257.895 148.788 258.542 148.174 258.542 146.912C258.542 145.535 259.654 144.422 261.031 144.422C262.408 144.422 263.52 145.535 263.52 146.912C263.52 150.714 261.048 152.656 259.239 154.051C257.53 155.395 256.883 156.009 256.883 157.271C256.883 158.533 257.53 159.163 259.239 160.491C261.048 161.902 263.52 163.828 263.52 167.646C263.52 171.448 261.048 173.39 259.239 174.801C257.53 176.146 256.883 176.76 256.883 178.038C256.883 179.3 257.53 179.93 259.239 181.275C261.048 182.686 263.52 184.612 263.52 188.43C263.52 189.791 262.408 190.903 261.031 190.903Z" fill="#0379F7"/>
<path d="M126.641 126.162C128.019 126.162 129.13 127.274 129.13 128.652C129.13 129.914 129.777 130.545 131.486 131.889C133.295 133.3 135.767 135.226 135.767 139.044C135.767 142.862 133.295 144.788 131.486 146.199C129.777 147.543 129.13 148.158 129.13 149.419C129.13 150.681 129.777 151.295 131.486 152.64C133.295 154.051 135.767 155.976 135.767 159.794C135.767 163.596 133.295 165.538 131.486 166.932C129.777 168.277 129.13 168.891 129.13 170.153C129.13 171.531 128.019 172.643 126.641 172.643C125.264 172.643 124.153 171.531 124.153 170.153C124.153 166.351 126.625 164.409 128.433 163.015C130.142 161.67 130.789 161.056 130.789 159.794C130.789 158.533 130.142 157.902 128.433 156.574C126.625 155.163 124.153 153.237 124.153 149.419C124.153 145.618 126.625 143.675 128.433 142.264C130.142 140.92 130.789 140.306 130.789 139.027C130.789 137.766 130.142 137.135 128.433 135.79C126.625 134.379 124.153 132.454 124.153 128.636C124.153 127.274 125.281 126.162 126.641 126.162Z" fill="#F8ACA7"/>
<path d="M285.37 113.164C283.993 113.164 282.882 112.052 282.882 110.674C282.882 109.412 282.235 108.781 280.526 107.437C278.717 106.026 276.245 104.1 276.245 100.282C276.245 96.464 278.717 94.5384 280.526 93.1274C282.235 91.7827 282.882 91.1685 282.882 89.9069C282.882 88.6453 282.235 88.0311 280.526 86.6865C278.717 85.2754 276.245 83.3498 276.245 79.5317C276.245 75.7303 278.717 73.788 280.526 72.3936C282.235 71.049 282.882 70.4348 282.882 69.1731C282.882 67.7953 283.993 66.6831 285.37 66.6831C286.748 66.6831 287.859 67.7953 287.859 69.1731C287.859 72.9746 285.387 74.9169 283.579 76.3113C281.87 77.6559 281.223 78.2701 281.223 79.5317C281.223 80.7934 281.87 81.4242 283.579 82.7522C285.387 84.1632 287.859 86.0888 287.859 89.9069C287.859 93.725 285.387 95.6506 283.579 97.0616C281.87 98.4063 281.223 99.0205 281.223 100.299C281.223 101.56 281.87 102.191 283.579 103.536C285.387 104.947 287.859 106.872 287.859 110.69C287.859 112.052 286.748 113.164 285.37 113.164Z" fill="#ED3024"/>
<path d="M205.599 2.05835C206.976 2.05835 208.088 3.17057 208.088 4.54839C208.088 5.81002 208.735 6.44083 210.444 7.78545C212.253 9.19648 214.725 11.1221 214.725 14.9402C214.725 18.7582 212.253 20.6839 210.444 22.0949C208.735 23.4395 208.088 24.0537 208.088 25.3154C208.088 26.577 208.735 27.1912 210.444 28.5358C212.253 29.9468 214.725 31.8725 214.725 35.6905C214.725 39.492 212.253 41.4342 210.444 42.8287C208.735 44.1733 208.088 44.7875 208.088 46.0491C208.088 47.4269 206.976 48.5392 205.599 48.5392C204.222 48.5392 203.111 47.4269 203.111 46.0491C203.111 42.2477 205.583 40.3054 207.391 38.911C209.1 37.5664 209.747 36.9522 209.747 35.6905C209.747 34.4289 209.1 33.7981 207.391 32.4701C205.583 31.0591 203.111 29.1334 203.111 25.3154C203.111 21.4973 205.583 19.5717 207.391 18.1606C209.1 16.816 209.747 16.2018 209.747 14.9236C209.747 13.662 209.1 13.0311 207.391 11.6865C205.583 10.2755 203.111 8.34986 203.111 4.53179C203.111 3.17057 204.239 2.05835 205.599 2.05835Z" fill="#FFB43B"/>
<path d="M162.595 100.15C161.218 100.15 160.106 99.0373 160.106 97.6595C160.106 96.3978 159.459 95.767 157.75 94.4224C155.942 93.0114 153.47 91.0857 153.47 87.2677C153.47 83.4662 155.942 81.524 157.75 80.113C159.459 78.7683 160.106 78.1541 160.106 76.8759C160.106 75.6143 159.459 75.0001 157.75 73.6554C155.942 72.2444 153.47 70.3188 153.47 66.5007C153.47 62.6993 155.942 60.7736 157.75 59.3626C159.459 58.018 160.106 57.4038 160.106 56.1421C160.106 54.7643 161.218 53.6521 162.595 53.6521C163.972 53.6521 165.083 54.7643 165.083 56.1421C165.083 59.9436 162.611 61.8858 160.803 63.2803C159.094 64.6249 158.447 65.2391 158.447 66.5007C158.447 67.7623 159.094 68.3766 160.803 69.7212C162.611 71.1322 165.083 73.0578 165.083 76.8759C165.083 80.6774 162.611 82.6196 160.803 84.0306C159.094 85.3752 158.447 86.0061 158.447 87.2677C158.447 88.5293 159.094 89.1601 160.803 90.5047C162.611 91.9158 165.083 93.8414 165.083 97.6595C165.083 99.0373 163.972 100.15 162.595 100.15Z" fill="#0379F7"/>
<path d="M160.388 176.66C163.256 176.66 165.581 174.334 165.581 171.464C165.581 168.594 163.256 166.268 160.388 166.268C157.52 166.268 155.195 168.594 155.195 171.464C155.195 174.334 157.52 176.66 160.388 176.66Z" fill="#FFB43B"/>
<path d="M119.457 97.3271C122.325 97.3271 124.65 95.0008 124.65 92.1312C124.65 89.2616 122.325 86.9353 119.457 86.9353C116.589 86.9353 114.264 89.2616 114.264 92.1312C114.264 95.0008 116.589 97.3271 119.457 97.3271Z" fill="#0379F7"/>
<path d="M163.905 17.0983C166.774 17.0983 169.099 14.772 169.099 11.9024C169.099 9.03282 166.774 6.70654 163.905 6.70654C161.037 6.70654 158.712 9.03282 158.712 11.9024C158.712 14.772 161.037 17.0983 163.905 17.0983Z" fill="#F8ACA7"/>
<path d="M237.803 115.04C240.671 115.04 242.996 112.714 242.996 109.844C242.996 106.974 240.671 104.648 237.803 104.648C234.935 104.648 232.61 106.974 232.61 109.844C232.61 112.714 234.935 115.04 237.803 115.04Z" fill="#F8ACA7"/>
<path d="M199.925 81.8393C202.793 81.8393 205.118 79.513 205.118 76.6434C205.118 73.7738 202.793 71.4475 199.925 71.4475C197.057 71.4475 194.732 73.7738 194.732 76.6434C194.732 79.513 197.057 81.8393 199.925 81.8393Z" fill="#ED3024"/>
<path d="M217.894 169.257C220.762 169.257 223.087 166.93 223.087 164.061C223.087 161.191 220.762 158.865 217.894 158.865C215.026 158.865 212.701 161.191 212.701 164.061C212.701 166.93 215.026 169.257 217.894 169.257Z" fill="#ED3024"/>
<path d="M293.119 152.656C295.987 152.656 298.312 150.33 298.312 147.46C298.312 144.59 295.987 142.264 293.119 142.264C290.251 142.264 287.926 144.59 287.926 147.46C287.926 150.33 290.251 152.656 293.119 152.656Z" fill="#ED3024"/>
<path d="M375.163 219.638C363.831 208.3 345.448 208.3 334.099 219.638C322.751 230.976 322.767 249.369 334.099 260.724C345.431 272.079 383.658 269.24 383.658 269.24C383.658 269.24 386.511 230.993 375.163 219.638ZM346.725 248.108C335.377 236.753 341.449 226.976 341.449 226.976C341.449 226.976 345.746 226.395 357.095 237.733C368.427 249.071 373.139 263.944 373.139 263.944C373.139 263.944 358.057 259.446 346.725 248.108Z" fill="#FFB43B"/>
<path d="M433.232 219.638C421.9 208.3 403.517 208.3 392.169 219.638C380.82 230.976 383.658 269.223 383.658 269.223C383.658 269.223 421.884 272.062 433.232 260.707C444.581 249.386 444.581 230.993 433.232 219.638ZM420.623 248.108C409.291 259.446 394.425 264.144 394.425 264.144C394.425 264.144 398.922 249.071 410.253 237.733C421.585 226.395 431.374 232.454 431.374 232.454C431.374 232.454 431.971 236.753 420.623 248.108Z" fill="#FF823B"/>
<path d="M383.674 292.447C393.295 292.447 401.095 284.643 401.095 275.017C401.095 265.39 393.295 257.587 383.674 257.587C374.053 257.587 366.253 265.39 366.253 275.017C366.253 284.643 374.053 292.447 383.674 292.447Z" fill="#FFB43B"/>
<path d="M451.284 275.017H414.783V358.018H451.284C454.021 358.018 456.261 355.777 456.261 353.038V279.997C456.261 277.258 454.021 275.017 451.284 275.017Z" fill="#0379F7"/>
<path d="M451.284 275.017H414.783V358.018H451.284C454.021 358.018 456.261 355.777 456.261 353.038V279.997C456.261 277.258 454.021 275.017 451.284 275.017Z" fill="black" fill-opacity="0.2"/>
<path d="M316.064 275.017C313.327 275.017 311.087 277.258 311.087 279.997V353.038C311.087 355.777 313.327 358.018 316.064 358.018H414.783V275.017H316.064Z" fill="#0379F7"/>
<path d="M456.261 313.198H414.783V329.798H456.261V313.198Z" fill="#FF823B"/>
<path d="M442.158 275.017H435.522V358.018H442.158V275.017Z" fill="#FF823B"/>
<path d="M414.783 313.198H311.087V329.798H414.783V313.198Z" fill="#FFA53B"/>
<path d="M367.912 275.017H351.321V358.018H367.912V275.017Z" fill="#FFB93B"/>
</g>
<defs>
<clipPath id="clip0_2882_478">
<rect width="477" height="446" fill="white"/>
</clipPath>
<clipPath id="clip1_2882_478">
<rect width="429" height="369" fill="white" transform="translate(0 3)"/>
</clipPath>
</defs>
</svg>
