<svg width="607" height="525" viewBox="0 0 607 525" fill="none" xmlns="http://www.w3.org/2000/svg">
<path opacity="0.3" fill-rule="evenodd" clip-rule="evenodd" d="M313.353 509.054C251.718 512.982 187.88 539.1 132.624 511.477C73.8574 482.097 33.9071 422.467 14.481 359.64C-4.78196 297.34 -5.4989 225.817 26.7849 169.174C56.8471 116.43 123.75 103.562 177.003 74.4943C221.898 49.9884 263.009 21.7145 313.353 12.7527C372.866 2.15864 436.839 -9.77342 490.152 18.7499C546.592 48.9463 590.707 105.226 603.527 168.001C615.817 228.18 578.358 284.147 556.036 341.36C535.249 394.638 525.125 456.973 478.107 489.462C431.448 521.704 369.93 505.449 313.353 509.054Z" stroke="url(#paint0_radial_2524_858)" stroke-width="0.65"/>
<path opacity="0.3" fill-rule="evenodd" clip-rule="evenodd" d="M312.523 487.932C256.083 491.523 197.626 515.403 147.028 490.146C93.2145 463.284 56.6316 408.762 38.843 351.317C21.2037 294.355 20.5472 228.959 50.1098 177.17C77.638 128.944 138.902 117.178 187.665 90.6011C228.776 68.1947 266.422 42.343 312.523 34.149C367.019 24.4626 425.6 13.5527 474.419 39.6324C526.102 67.2418 566.498 118.7 578.237 176.097C589.491 231.12 555.19 282.292 534.75 334.603C515.715 383.318 506.444 440.312 463.39 470.018C420.664 499.497 364.331 484.635 312.523 487.932Z" stroke="url(#paint1_radial_2524_858)" stroke-width="0.65"/>
<path opacity="0.3" fill-rule="evenodd" clip-rule="evenodd" d="M311.667 466.809C260.58 470.063 207.667 491.706 161.868 468.816C113.158 444.47 80.0446 395.057 63.943 342.995C47.9766 291.37 47.3824 232.102 74.1412 185.165C99.0587 141.458 154.512 130.795 198.651 106.708C235.863 86.4009 269.939 62.9715 311.667 55.5453C360.995 46.7665 414.02 36.8789 458.209 60.5149C504.99 85.5373 541.555 132.174 552.181 184.193C562.368 234.06 531.32 280.437 512.818 327.847C495.589 371.997 487.197 423.651 448.226 450.573C409.552 477.29 358.562 463.821 311.667 466.809Z" stroke="url(#paint2_radial_2524_858)" stroke-width="0.65"/>
<path opacity="0.3" fill-rule="evenodd" clip-rule="evenodd" d="M310.887 447.143C264.68 450.085 216.822 469.644 175.398 448.957C131.341 426.955 101.391 382.299 86.8281 335.248C72.387 288.592 71.8495 235.029 96.0521 192.61C118.589 153.11 168.745 143.473 208.667 121.705C242.324 103.352 273.145 82.1782 310.887 75.4668C355.502 67.533 403.462 58.5972 443.43 79.9581C485.741 102.572 518.813 144.72 528.424 191.731C537.638 236.798 509.556 278.712 492.822 321.558C477.238 361.458 469.648 408.14 434.4 432.471C399.42 456.616 353.301 444.444 310.887 447.143Z" stroke="url(#paint3_radial_2524_858)" stroke-width="0.65"/>
<path opacity="0.3" fill-rule="evenodd" clip-rule="evenodd" d="M310.106 427.477C268.78 430.105 225.977 447.582 188.928 429.098C149.525 409.439 122.739 369.539 109.713 327.499C96.7976 285.813 96.3169 237.955 117.963 200.054C138.12 164.761 182.978 156.15 218.684 136.7C248.786 120.303 276.351 101.384 310.106 95.3874C350.01 88.2986 392.904 80.3145 428.65 99.4003C466.493 119.606 496.072 157.264 504.667 199.269C512.908 239.536 487.792 276.985 472.825 315.268C458.888 350.918 452.099 392.628 420.574 414.367C389.289 435.941 348.041 425.065 310.106 427.477Z" stroke="url(#paint4_radial_2524_858)" stroke-width="0.65"/>
<path opacity="0.3" fill-rule="evenodd" clip-rule="evenodd" d="M308.902 407.811C272.693 410.125 235.189 425.519 202.727 409.238C168.202 391.923 144.732 356.779 133.32 319.751C122.003 283.034 121.582 240.88 140.548 207.497C158.209 176.412 197.514 168.828 228.799 151.696C255.174 137.253 279.326 120.59 308.902 115.308C343.865 109.064 381.449 102.032 412.769 118.842C445.926 136.639 471.843 169.809 479.375 206.806C486.595 242.273 464.589 275.258 451.475 308.977C439.263 340.378 433.315 377.116 405.693 396.264C378.281 415.266 342.14 405.686 308.902 407.811Z" stroke="url(#paint5_radial_2524_858)" stroke-width="0.65"/>
<path opacity="0.3" fill-rule="evenodd" clip-rule="evenodd" d="M308.546 388.873C276.981 390.886 244.287 404.273 215.989 390.114C185.893 375.056 165.433 344.492 155.484 312.289C145.619 280.357 145.252 243.698 161.785 214.665C177.181 187.631 211.444 181.035 238.717 166.137C261.709 153.576 282.764 139.084 308.546 134.491C339.025 129.061 371.788 122.945 399.091 137.565C427.996 153.042 450.588 181.889 457.154 214.064C463.448 244.909 444.264 273.595 432.832 302.92C422.187 330.228 417.001 362.178 392.922 378.831C369.027 395.356 337.521 387.025 308.546 388.873Z" stroke="url(#paint6_radial_2524_858)" stroke-width="0.65"/>
<defs>
<radialGradient id="paint0_radial_2524_858" cx="0" cy="0" r="1" gradientUnits="userSpaceOnUse" gradientTransform="translate(298.431 261.126) rotate(-133.875) scale(296.517 343.367)">
<stop stop-color="white"/>
<stop offset="1" stop-color="white" stop-opacity="0.8"/>
</radialGradient>
<radialGradient id="paint1_radial_2524_858" cx="0" cy="0" r="1" gradientUnits="userSpaceOnUse" gradientTransform="translate(298.858 261.243) rotate(-133.918) scale(271.311 314.196)">
<stop stop-color="white"/>
<stop offset="1" stop-color="white" stop-opacity="0.8"/>
</radialGradient>
<radialGradient id="paint2_radial_2524_858" cx="0" cy="0" r="1" gradientUnits="userSpaceOnUse" gradientTransform="translate(299.299 261.361) rotate(-133.882) scale(245.74 284.57)">
<stop stop-color="white"/>
<stop offset="1" stop-color="white" stop-opacity="0.8"/>
</radialGradient>
<radialGradient id="paint3_radial_2524_858" cx="0" cy="0" r="1" gradientUnits="userSpaceOnUse" gradientTransform="translate(299.7 261.471) rotate(-133.905) scale(222.172 257.286)">
<stop stop-color="white"/>
<stop offset="1" stop-color="white" stop-opacity="0.8"/>
</radialGradient>
<radialGradient id="paint4_radial_2524_858" cx="0" cy="0" r="1" gradientUnits="userSpaceOnUse" gradientTransform="translate(300.101 261.581) rotate(-133.933) scale(198.603 230.001)">
<stop stop-color="white"/>
<stop offset="1" stop-color="white" stop-opacity="0.8"/>
</radialGradient>
<radialGradient id="paint5_radial_2524_858" cx="0" cy="0" r="1" gradientUnits="userSpaceOnUse" gradientTransform="translate(300.136 261.69) rotate(-133.783) scale(174.489 202.032)">
<stop stop-color="white"/>
<stop offset="1" stop-color="white" stop-opacity="0.8"/>
</radialGradient>
<radialGradient id="paint6_radial_2524_858" cx="0" cy="0" r="1" gradientUnits="userSpaceOnUse" gradientTransform="translate(300.904 261.795) rotate(-133.851) scale(151.921 175.919)">
<stop stop-color="white"/>
<stop offset="1" stop-color="white" stop-opacity="0.8"/>
</radialGradient>
</defs>
</svg>
