<?xml version="1.0" encoding="UTF-8"?> <svg xmlns="http://www.w3.org/2000/svg" width="621" height="725" viewBox="0 0 621 725" fill="none"> <rect x="6" y="6" width="609" height="713" rx="22" fill="#E6F2FF" stroke="#024A97" stroke-width="12"></rect> <path d="M43 396H476.5C490.031 396 501 406.969 501 420.5V420.5C501 434.031 490.031 445 476.5 445H63C51.9543 445 43 436.046 43 425V396Z" fill="#0379F7"></path> <path d="M43 467H324.5C338.031 467 349 477.969 349 491.5V491.5C349 505.031 338.031 516 324.5 516H63C51.9543 516 43 507.046 43 496V467Z" fill="#0379F7"></path> <path d="M43 538H412.5C426.031 538 437 548.969 437 562.5V562.5C437 576.031 426.031 587 412.5 587H63C51.9543 587 43 578.046 43 567V538Z" fill="#0379F7"></path> <path d="M43 60C43 51.1635 50.1634 44 59 44H561C569.837 44 577 51.1634 577 60V367H43V60Z" fill="#0379F7"></path> <path d="M85.6649 623.9L69.9769 661H57.6809L41.9929 623.9H55.4549L64.3059 645.577L73.3689 623.9H85.6649Z" fill="#0379F7"></path> <path d="M124.116 651.566V661H93.2696V623.9H123.427V633.334H105.566V637.68H121.254V646.69H105.566V651.566H124.116Z" fill="#0379F7"></path> <path d="M151.191 651.672H147.799V661H135.291V623.9H153.152C156.579 623.9 159.565 624.465 162.109 625.596C164.653 626.727 166.614 628.352 167.992 630.472C169.37 632.592 170.059 635.065 170.059 637.892C170.059 640.542 169.458 642.856 168.257 644.835C167.055 646.814 165.324 648.386 163.063 649.552L170.854 661H157.498L151.191 651.672ZM157.445 637.892C157.445 636.514 157.021 635.454 156.173 634.712C155.325 633.935 154.053 633.546 152.357 633.546H147.799V642.238H152.357C154.053 642.238 155.325 641.867 156.173 641.125C157.021 640.348 157.445 639.27 157.445 637.892Z" fill="#0379F7"></path> <path d="M181.142 623.9H193.65V661H181.142V623.9Z" fill="#0379F7"></path> <path d="M218.539 633.334V639.694H234.015V649.128H218.539V661H206.031V623.9H236.188V633.334H218.539Z" fill="#0379F7"></path> <path d="M246.5 623.9H259.008V661H246.5V623.9Z" fill="#0379F7"></path> <path d="M302.235 651.566V661H271.389V623.9H301.546V633.334H283.685V637.68H299.373V646.69H283.685V651.566H302.235Z" fill="#0379F7"></path> <path d="M313.41 623.9H331.695C335.829 623.9 339.468 624.66 342.613 626.179C345.793 627.663 348.249 629.801 349.98 632.592C351.747 635.383 352.63 638.669 352.63 642.45C352.63 646.231 351.747 649.517 349.98 652.308C348.249 655.099 345.793 657.255 342.613 658.774C339.468 660.258 335.829 661 331.695 661H313.41V623.9ZM331.165 651.248C333.85 651.248 335.988 650.488 337.578 648.969C339.203 647.414 340.016 645.241 340.016 642.45C340.016 639.659 339.203 637.503 337.578 635.984C335.988 634.429 333.85 633.652 331.165 633.652H325.918V651.248H331.165Z" fill="#0379F7"></path> <path d="M276.175 330.39L254.759 285.104C269.561 276.039 277.608 265.073 281.613 254.764C286.203 242.949 285.483 231.997 283.537 225.763L350.686 228.217C350.304 232.042 350.245 235.686 350.458 239.148C352.137 266.376 370.643 282.387 380.803 287.335L360.502 330.39H276.175Z" fill="#EAA893"></path> <path d="M283.537 225.763L350.686 228.217C350.304 232.042 350.245 235.686 350.458 239.148C332.608 253.068 297.124 255.359 281.613 254.764C286.203 242.949 285.483 231.997 283.537 225.763Z" fill="#D8816D"></path> <path d="M312.805 245.908C285.142 241.446 265.882 209.098 259.71 193.482C248.558 190.514 236.479 162.822 235.617 162.473C219.776 91.2394 261.268 7.34624 338.014 42.4523C402.126 71.7796 404.866 126.854 396.24 155.893C394.634 164.481 393.638 165.269 386.157 176.751C378.483 188.53 382.811 182.997 376.831 193.482C367.015 213.783 347.384 251.485 312.805 245.908Z" fill="#EAA893"></path> <path d="M327.039 213.141C321.215 214.353 307.529 214.45 299.376 205.141L301.607 202.785" stroke="#D76350" stroke-width="4.01556"></path> <ellipse opacity="0.8" cx="284.429" cy="173.783" rx="7.36187" ry="6.02335" fill="#DB806B" fill-opacity="0.62"></ellipse> <ellipse opacity="0.8" cx="350.463" cy="173.783" rx="7.36187" ry="6.02335" fill="#DB806B" fill-opacity="0.62"></ellipse> <path d="M276.175 146.79C279.255 142.84 290.676 135.636 303.392 147.459" stroke="#111827" stroke-width="3.56939" stroke-linecap="square"></path> <path d="M360.056 147.236C356.976 143.286 345.555 136.082 332.839 147.905" stroke="#111827" stroke-width="3.56939" stroke-linecap="square"></path> <path d="M401.613 167.988C400.006 150.676 389.938 153.487 385.104 157.056C380.122 165.757 371.362 185.478 376.181 194.758C382.204 206.358 403.62 189.627 401.613 167.988Z" fill="#EAA893"></path> <path d="M364.124 118.351C374.832 129.773 383.703 134.52 382.863 148.467C382.024 162.414 367.864 211.262 356.709 224.87C387.763 204.703 400.36 163.447 404.673 146.121C424.662 58.3136 358.026 30.7517 323.745 29.3388C297.421 26.8849 241.783 36.6561 229.826 95.3726C217.868 154.089 242.542 195.985 256.373 209.593C241.426 137.536 266.189 106.75 298.09 106.973C323.611 107.152 336.387 86.8209 339.584 76.6332C341.146 81.9873 350.739 104.073 364.124 118.351Z" fill="#172740"></path> <path d="M234.367 167.541C235.973 150.23 246.042 153.041 250.875 156.61C255.858 165.311 264.618 185.031 259.799 194.312C253.775 205.912 232.359 189.181 234.367 167.541Z" fill="#EAA893"></path> <ellipse cx="289.114" cy="147.013" rx="6.24643" ry="6.46952" fill="#111827"></ellipse> <ellipse rx="6.24643" ry="6.46952" transform="matrix(-1 0 0 1 347.117 147.459)" fill="#111827"></ellipse> <path d="M244.38 167.07C246.877 168.826 251.212 174.497 248.575 183.136" stroke="#DB806B" stroke-width="0.892348"></path> <path d="M313.882 182.261L315.89 150.805C313.882 174.453 307.19 178.691 307.413 180.03C307.591 181.101 311.8 181.963 313.882 182.261Z" fill="#DB806B"></path> <path d="M275.364 129.438C271.616 130.509 269.34 135.238 268.671 137.469C268.206 138.718 269.844 142.192 271.042 140.834C272.24 139.477 274.975 136.169 276.843 135.703C278.991 134.83 300.853 133.492 303.613 132.58C306.373 131.669 305.398 127.672 302.357 126.538C299.317 125.403 280.048 128.1 275.364 129.438Z" fill="#172740"></path> <path d="M362.715 128.992C366.463 130.063 368.738 134.792 369.407 137.023C369.872 138.272 368.234 141.746 367.036 140.388C365.838 139.031 363.103 135.722 361.236 135.257C359.088 134.384 337.225 133.045 334.465 132.134C331.706 131.223 332.681 127.226 335.721 126.092C338.762 124.957 358.03 127.653 362.715 128.992Z" fill="#172740"></path> <path fill-rule="evenodd" clip-rule="evenodd" d="M280.103 98.6074C312.262 95.4442 327.485 65.1401 335.293 54.8781L337.97 50.6394C332.421 64.9631 313.439 97.1218 280.278 100.383C264.277 101.957 255.602 110.116 251.185 119.647C246.738 129.243 247.174 140.99 246.951 151.029L246.071 147.833C244.786 140.348 244.925 128.91 249.565 118.897C254.236 108.819 263.444 100.246 280.103 98.6074Z" fill="#1C3049"></path> <path fill-rule="evenodd" clip-rule="evenodd" d="M377.693 116.609C358.456 95.754 344.711 60.5253 340.238 45.5405L344.44 53.9857C346.447 57.5551 360.049 94.8487 379.005 115.399C398.41 136.436 393.634 158.705 388.716 167.31L386.826 169.991C391.065 157.944 396.481 136.977 377.693 116.609Z" fill="#1C3049"></path> <path d="M301.607 106.188C321.239 105.831 335.219 87.1512 339.755 77.856C335.115 104.448 312.761 114.926 302.276 114.665C266.359 113.773 258.105 142.997 253.866 159.283H252.305C255.428 118.458 277.067 106.634 301.607 106.188Z" fill="#DE8873"></path> <path d="M361.171 330.167H275.06L292.014 367.646H343.547L361.171 330.167Z" fill="#B4D0E8"></path> <path fill-rule="evenodd" clip-rule="evenodd" d="M339.193 73.2483C340.34 65.1301 340.201 62.9091 340.201 56.8858L339.482 48.7836C342.001 55.9976 342.127 65.2333 340.96 73.4979C340.375 77.6409 339.461 81.569 338.342 84.9126C337.228 88.2415 335.891 91.0489 334.434 92.9073C334.226 93.1719 334.019 93.4361 333.813 93.6999C330.841 97.4979 327.951 101.191 324.128 104.269C320.012 107.582 314.843 110.164 307.344 111.528C305.44 111.874 303.389 112.01 301.265 112.1C300.592 112.129 299.913 112.153 299.227 112.177C297.731 112.23 296.204 112.284 294.632 112.39C290.073 112.697 285.305 113.437 280.609 115.795C271.938 121.094 266.339 125.729 256.543 153.259C255.482 156.229 254.871 157.756 253.666 159.529C260.183 131.163 269.76 119.246 279.808 114.2C284.81 111.688 289.849 110.923 294.512 110.609C296.113 110.501 297.689 110.446 299.199 110.392C299.877 110.368 300.542 110.345 301.189 110.317C303.299 110.228 305.248 110.095 307.025 109.772C314.249 108.458 319.139 105.993 323.008 102.878C326.666 99.9347 329.436 96.3955 332.437 92.5627C332.633 92.3116 332.831 92.0594 333.029 91.8059C334.306 90.1783 335.564 87.5897 336.649 84.3461C337.73 81.1174 338.621 77.2967 339.193 73.2483Z" fill="#22314E"></path> <path d="M158.831 337.975C178.285 300.318 231.037 287.037 254.982 285.104L294.022 367.646H342.655L380.803 287.335C404.747 289.268 455.715 300.318 475.169 337.975L489 367.646H342.655H294.022H145L158.831 337.975Z" fill="#F7F8FA"></path> </svg> 