<?xml version="1.0" encoding="UTF-8"?> <svg xmlns="http://www.w3.org/2000/svg" width="402" height="565" viewBox="0 0 402 565" fill="none"> <g clip-path="url(#clip0_2145_10)"> <rect x="139.473" y="342.909" width="222.091" height="222.091" rx="111.046" fill="#FFC24B"></rect> <path d="M361.454 527.578V473.72L293.716 475.941L198.772 494.264V508.145L361.454 527.578Z" fill="#A8601F"></path> <path d="M287.001 500L282.434 400.05L290.404 404.512L293.209 497.426L287.001 500Z" fill="#E78327"></path> <path d="M304.23 495.868L321.957 391.341L330.047 388.215L310.933 494.694L304.23 495.868Z" fill="#E78327"></path> <path d="M227.644 586.987L200.525 502.38C199.147 498.08 202.355 493.684 206.87 493.684H306.324L338.9 487.007L333.053 578.809L306.324 586.987H227.644Z" fill="#FFA149"></path> <path d="M306.754 493.684L314.814 577.548L362.564 574.772L368.334 482.97L306.754 493.684Z" fill="#E78327"></path> <path d="M320.502 517.396L306.754 493.297L363.119 478.162L377.555 505.368L328.239 520.465C325.259 521.377 322.046 520.102 320.502 517.396Z" fill="#FFDBB9"></path> <path d="M189.825 514.398L195.885 497.806C196.845 495.178 199.345 493.429 202.143 493.429L306.894 493.429L298.208 518.838C297.287 521.534 294.753 523.346 291.904 523.346H196.083C191.456 523.346 188.237 518.744 189.825 514.398Z" fill="#FFDBB9"></path> </g> <g clip-path="url(#clip1_2145_10)"> <rect y="189.222" width="254.072" height="254.072" rx="127.036" fill="#0379F7"></rect> <rect x="101.476" y="294.763" width="200.515" height="161.665" rx="6.89269" fill="#E6F2FF" stroke="#024A97" stroke-width="3.75965"></rect> <line x1="120.901" y1="374.342" x2="282.566" y2="374.342" stroke="#0379F7" stroke-width="7.51929"></line> <line x1="120.901" y1="393.14" x2="218.652" y2="393.14" stroke="#0379F7" stroke-width="7.51929"></line> <line x1="120.901" y1="411.939" x2="260.008" y2="411.939" stroke="#0379F7" stroke-width="7.51929"></line> <line x1="120.901" y1="430.737" x2="189.828" y2="430.737" stroke="#0379F7" stroke-width="7.51929"></line> <path d="M133.559 337.591C130.133 337.591 127.334 336.505 125.162 334.333C122.99 332.161 121.904 329.174 121.904 325.373C121.904 322.824 122.405 320.631 123.408 318.793C124.41 316.955 125.789 315.556 127.543 314.595C129.339 313.634 131.345 313.154 133.559 313.154C135.773 313.154 137.757 313.634 139.511 314.595C141.308 315.556 142.707 316.955 143.71 318.793C144.712 320.631 145.214 322.824 145.214 325.373C145.214 329.174 144.127 332.161 141.955 334.333C139.783 336.505 136.984 337.591 133.559 337.591ZM159.312 313.78H169.902L139.95 357.643H129.36L159.312 313.78ZM133.559 330.824C134.352 330.824 135 330.406 135.501 329.571C136.044 328.694 136.316 327.294 136.316 325.373C136.316 323.451 136.044 322.072 135.501 321.237C135 320.36 134.352 319.921 133.559 319.921C132.765 319.921 132.097 320.36 131.553 321.237C131.052 322.072 130.802 323.451 130.802 325.373C130.802 327.294 131.052 328.694 131.553 329.571C132.097 330.406 132.765 330.824 133.559 330.824ZM165.704 358.269C162.278 358.269 159.479 357.183 157.307 355.011C155.135 352.839 154.049 349.852 154.049 346.051C154.049 343.502 154.55 341.309 155.553 339.471C156.555 337.633 157.934 336.234 159.688 335.273C161.484 334.312 163.49 333.832 165.704 333.832C167.918 333.832 169.902 334.312 171.656 335.273C173.453 336.234 174.852 337.633 175.855 339.471C176.857 341.309 177.358 343.502 177.358 346.051C177.358 349.852 176.272 352.839 174.1 355.011C171.928 357.183 169.129 358.269 165.704 358.269ZM165.704 351.502C166.497 351.502 167.145 351.084 167.646 350.249C168.189 349.372 168.461 347.972 168.461 346.051C168.461 344.129 168.189 342.75 167.646 341.915C167.145 341.038 166.497 340.599 165.704 340.599C164.91 340.599 164.241 341.038 163.698 341.915C163.197 342.75 162.947 344.129 162.947 346.051C162.947 347.972 163.197 349.372 163.698 350.249C164.241 351.084 164.91 351.502 165.704 351.502Z" fill="#024A97"></path> </g> <g clip-path="url(#clip2_2145_10)"> <rect x="115.487" width="286.053" height="286.053" rx="143.027" fill="#E83725"></rect> <path fill-rule="evenodd" clip-rule="evenodd" d="M406.257 255.178C406.342 254.894 406.426 254.619 406.51 254.354C406.478 254.609 406.397 254.889 406.257 255.178Z" fill="#8A1A0F"></path> <path d="M295.288 70.8913C287.301 67.7919 267.893 68.2449 254.16 94.8523C236.994 128.112 253.803 143.49 236.637 158.152C219.471 172.815 211.245 173.888 215.537 202.141C219.828 230.393 200.159 225.744 205.166 247.202C207.5 257.208 210.678 260.328 213.465 260.459C207.521 264.779 201.405 272.568 205.166 282.964C211.245 299.773 224.477 307.998 236.637 301.203C248.796 294.408 249.154 287.971 248.796 270.805C248.438 253.639 268.108 261.507 273.83 244.341C278.408 230.608 282.651 198.865 284.201 187.54C273.949 180.268 256.95 163.731 270.969 133.118H284.201L295.288 114.164V133.118L298.864 131.33L301.725 108.8L311.738 133.118L323.54 131.33C324.494 128.469 326.115 121.031 324.971 114.164C328.189 115.237 334.126 120.172 332.123 131.33H348.932C350.958 133.715 355.226 140.128 356.084 146.708C357.157 154.934 336.057 183.902 350.362 210.008C361.806 230.894 375.873 236.115 381.476 236.115C381.237 242.433 383.264 255.57 393.277 257.573C401.952 259.308 405.349 257.053 406.257 255.178C406.342 254.894 406.426 254.619 406.51 254.354C406.478 254.609 406.397 254.889 406.257 255.178C404.05 262.6 401.685 276.633 408.298 279.388C415.164 282.249 418.788 282.964 419.742 282.964C418.907 286.541 419.098 293.979 426.537 295.124C435.835 296.554 457.65 280.103 451.571 270.805C446.707 263.366 443.584 265.083 442.63 266.871C445.968 259.957 448.352 245.127 431.186 241.122C437.146 236.711 443.846 223.455 422.961 205.717C428.444 202.617 436.836 193.343 426.537 181.041C416.237 168.738 411.755 165.901 410.801 166.02C414.974 148.258 416.023 108.085 386.84 89.4879C381.714 86.6269 370.675 79.6174 367.528 74.4676C363.594 68.0303 337.13 54.0828 311.738 65.8845C308.997 67.9869 301.868 71.9315 295.288 70.8913Z" fill="#8A1A0F"></path> <path d="M368.161 102.424C377.579 114.345 392.48 146.627 376.744 180.387" stroke="#8A1A0F" stroke-width="1.41248" stroke-linecap="round"></path> <path d="M378.532 105.285C383.897 109.577 394.196 125.026 392.48 152.492C390.763 179.958 396.294 186.586 399.275 186.467" stroke="#FCA49C" stroke-width="1.41248" stroke-linecap="round"></path> <path d="M263.018 90.9803C253.482 95.5102 237.269 110.292 248.713 133.18" stroke="#FCA49C" stroke-width="1.41248" stroke-linecap="round"></path> <path d="M372.81 189.685C368.995 197.553 366.516 214.29 387.115 218.296" stroke="#8A1A0F" stroke-width="1.41248" stroke-linecap="round"></path> <path d="M350.279 84.543C348.372 88.0001 346.56 97.203 354.571 106.358C364.584 117.802 375.671 123.524 371.022 155.711" stroke="#631008" stroke-width="1.41248" stroke-linecap="round"></path> <path d="M251.932 166.44C247.402 165.724 238.056 169.086 236.911 188.255C235.481 212.216 230.116 228.309 224.394 228.309" stroke="#631008" stroke-width="1.41248" stroke-linecap="round"></path> <path d="M222.964 240.826C219.746 243.568 215.239 251.412 222.964 260.853" stroke="#631008" stroke-width="1.41248" stroke-linecap="round"></path> <path d="M228.686 252.986C233.216 257.039 238.771 266.861 224.752 273.728" stroke="#FCA49C" stroke-width="1.41248" stroke-linecap="round"></path> <path d="M195.986 176.32C206.858 190.912 221.735 199.566 227.815 202.07L219.947 223.885C200.993 213.514 187.761 187.407 187.045 184.903C186.473 182.901 184.9 181.446 184.184 180.969C180.25 175.963 171.954 165.091 170.237 161.658C168.52 158.224 171.163 157.843 172.699 158.081C172.477 157.532 172.249 156.829 172.025 155.936C171.342 153.202 175.244 152.359 177.075 154.147C166.622 134.813 172.068 132.109 182.294 151.644C179.143 134.679 180.791 125.056 187.201 146.77C188.303 150.502 189.906 156.639 190.264 159.316C190.02 151.972 192.454 149.04 195.271 158.081C196.113 160.785 196.582 171.075 195.986 176.32Z" fill="#FFE8E5"></path> <path d="M190.622 160.942C190.155 160.475 190.078 159.887 190.264 159.316M190.264 159.316C190.02 151.972 192.454 149.04 195.271 158.081C196.113 160.785 196.582 171.075 195.986 176.32C206.858 190.912 221.735 199.566 227.815 202.07L219.947 223.885C200.993 213.514 187.761 187.407 187.045 184.903C186.473 182.901 184.9 181.446 184.184 180.969C180.25 175.963 171.954 165.091 170.237 161.658C168.52 158.224 171.163 157.843 172.699 158.081M190.264 159.316C189.906 156.639 188.303 150.502 187.201 146.77C180.791 125.056 179.143 134.679 182.294 151.644M183.112 154.863C182.728 154.351 182.39 153.017 182.294 151.644M182.294 151.644C172.068 132.109 166.622 134.813 177.075 154.147M177.39 155.936C177.242 155.272 177.139 154.678 177.075 154.147M177.075 154.147C175.244 152.359 171.342 153.202 172.025 155.936C172.249 156.829 172.477 157.532 172.699 158.081M174.171 159.869C173.969 159.645 172.896 158.929 172.699 158.081" stroke="#FDB2AA" stroke-width="1.41248"></path> <path d="M241.561 240.111C245.614 240.588 254.221 239.038 256.224 229.024" stroke="#8A1A0F" stroke-width="1.41248" stroke-linecap="round"></path> <path d="M265.164 174.665C259.919 180.387 251.217 196.194 258.369 213.646" stroke="#FCA49C" stroke-width="1.41248" stroke-linecap="round"></path> <path d="M294.502 203.633C256.45 205.922 238.593 196.957 234.42 192.189C219.829 207.924 216.658 228.309 216.897 236.535C240.929 243.973 259.812 240.826 266.249 238.323L252.659 295.901C288.994 317.645 356.967 303.292 386.412 293.397C383.837 253.057 376.995 237.25 373.895 234.389C396.783 243.258 410.135 239.515 413.949 236.535L394.995 184.321C369.246 199.341 340.993 202.56 331.337 203.633C321.682 204.706 309.522 204.348 305.946 203.633C303.085 203.061 297.124 203.395 294.502 203.633Z" fill="#E83725"></path> <path d="M304.146 203.991V199.699L325.603 203.991C325.842 205.898 324.602 210.213 317.736 210.785C310.869 211.358 305.815 206.494 304.146 203.991Z" fill="#FFE8E5"></path> <path d="M304.146 200.057V193.977L323.815 189.328L325.603 204.348C318.165 204.92 308.199 201.726 304.146 200.057Z" fill="#FCA49C"></path> <path d="M305.219 193.981H305.212L305.204 193.982C281.34 194.949 265.516 176.988 265.16 155.708C265.162 129.435 286.301 108.142 312.371 108.142C338.443 108.142 359.583 129.437 359.583 155.711C359.583 168.794 352.56 178.347 342.244 184.646C331.918 190.952 318.306 193.981 305.219 193.981Z" fill="#FFE8E6" stroke="#FDB2AA" stroke-width="0.706239"></path> <path d="M303.43 178.599C306.291 179.195 313.015 179.243 317.02 174.665L314.517 172.519" stroke="#FCA49C" stroke-width="1.05936"></path> <circle opacity="0.8" cx="334.186" cy="160.002" r="5.72204" fill="#FCA49C"></circle> <ellipse opacity="0.8" cx="283.403" cy="160.002" rx="7.15255" ry="5.72204" fill="#FCA49C"></ellipse> <path d="M308.395 147.843C308.275 150.346 306.756 154.921 303.03 156.784C299.454 158.572 306.249 161.79 307.322 160.36" stroke="#FCA49C" stroke-width="1.05936"></path> <path d="M283.403 144.267C284.714 146.651 288.982 150.203 295.562 145.34" stroke="black" stroke-width="1.41248"></path> <path d="M318.45 143.846C319.955 146.113 324.503 149.299 330.657 143.905" stroke="black" stroke-width="1.41248"></path> <circle cx="357.79" cy="137.829" r="10.0136" fill="#FFE8E5"></circle> <path d="M284.201 135.979H270.968C261.285 130.636 249.357 115.657 279.111 98.4904C316.304 77.0328 353.855 99.9209 357.432 114.941C360.293 126.958 352.957 132.781 348.931 134.191H332.123C334.125 123.033 328.189 118.098 324.97 117.025C326.115 123.892 324.493 131.33 323.54 134.191L311.738 135.979L301.724 111.661L298.863 134.191L295.287 135.979V117.025L284.201 135.979Z" fill="#8A1A0F"></path> <path d="M312.013 97.4176C312.371 105.166 315.518 121.879 325.245 126.743" stroke="#FCA49C" stroke-width="1.41248" stroke-linecap="round"></path> <path d="M296.993 103.14C298.066 108.742 297.78 121.45 288.052 127.458" stroke="#FCA49C" stroke-width="1.41248" stroke-linecap="round"></path> <path d="M325.961 82.3972C325.246 93.0068 327.606 116.3 342.77 124.597" stroke="#631008" stroke-width="1.41248" stroke-linecap="round"></path> <path d="M289.125 90.6226C281.734 93.722 265.665 107.574 260.515 138.187" stroke="#631008" stroke-width="1.41248" stroke-linecap="round"></path> <path d="M290.556 203.991C294.275 203.132 301.165 203.156 304.146 203.275C305.219 205.54 309.009 210.213 315.59 210.785C323.801 211.2 325.594 206.389 325.603 203.99C334.472 202.56 338.359 202.918 339.193 203.275C343.25 203.991 348.301 217.82 339.193 219.726C323.815 222.945 319.404 213.05 315.59 210.785C314.398 212.454 311.656 222.587 296.278 220.084C281.063 217.607 285.907 205.063 290.556 203.991Z" fill="white"></path> <path d="M362.797 132.823C361.553 133.178 359.384 134.869 358.358 138.902M357.79 143.909C357.79 141.939 358.007 140.283 358.358 138.902M358.358 138.902C359.48 137.71 362.367 135.684 364.942 137.114" stroke="#8A1A0F" stroke-width="0.706239"></path> <path d="M187.559 162.148C187.082 162.744 186.2 164.509 186.486 166.797M180.406 162.863C181.241 162.983 182.981 163.865 183.268 166.44" stroke="#FDB2AA" stroke-width="1.41248"></path> </g> <defs> <clipPath id="clip0_2145_10"> <rect x="139.473" y="342.909" width="222.091" height="222.091" rx="111.046" fill="white"></rect> </clipPath> <clipPath id="clip1_2145_10"> <rect y="189.222" width="254.072" height="254.072" rx="127.036" fill="white"></rect> </clipPath> <clipPath id="clip2_2145_10"> <rect x="115.487" width="286.053" height="286.053" rx="143.027" fill="white"></rect> </clipPath> </defs> </svg> 