<svg width="48" height="48" viewBox="0 0 48 48" fill="none" xmlns="http://www.w3.org/2000/svg">
<circle cx="24" cy="24" r="24" fill="#516176" fill-opacity="0.2"/>
<path fill-rule="evenodd" clip-rule="evenodd" d="M39.1661 18.0586V18.065C39.9662 19.9914 40.373 22.0384 40.373 24.1514C40.373 32.9715 33.1931 40.1514 24.373 40.1514C15.553 40.1514 8.37305 32.9715 8.37305 24.1514C8.37305 15.3313 15.553 8.15137 24.373 8.15137C26.0397 8.15137 27.6865 8.41103 29.2544 8.91845C29.2608 8.91845 29.2608 8.92484 29.2608 8.92484H29.2809C29.3033 8.9325 29.3214 8.94615 29.3402 8.9602L29.3579 8.97322L29.3655 8.97847L29.374 8.98391L29.3786 8.98659L29.3879 8.99161C29.4217 9.01173 29.4619 9.01812 29.4949 9.04464C29.4949 9.04464 29.4949 9.04681 29.4962 9.04862C29.4969 9.04992 29.4985 9.05103 29.5012 9.05103C29.5372 9.08768 29.5631 9.12438 29.5924 9.16593L29.601 9.17812C29.6049 9.18329 29.609 9.18818 29.6133 9.19299L29.6226 9.20333C29.6309 9.21253 29.6393 9.22172 29.6466 9.23194C29.6522 9.23975 29.6573 9.24819 29.6612 9.25766C29.672 9.27641 29.6789 9.29685 29.6841 9.31819L29.6868 9.33011L29.6898 9.34467L29.6942 9.37102L29.7004 9.38787L29.707 9.40527L29.7075 9.40658C29.7185 9.43538 29.7299 9.46517 29.7345 9.49812C29.7345 9.50901 29.7331 9.52009 29.7316 9.53158V9.53686C29.7299 9.55182 29.728 9.56764 29.728 9.58496C29.728 9.64529 29.7217 9.69832 29.708 9.75869V9.76508C29.7002 9.78753 29.6867 9.80797 29.6736 9.82739C29.6633 9.84277 29.6535 9.85749 29.6475 9.87205C29.6275 9.9123 29.6137 9.9525 29.5872 9.98541C28.7332 11.0259 28.267 12.326 28.267 13.659C28.267 16.8517 30.8663 19.452 34.0599 19.452C35.5667 19.452 36.993 18.8723 38.08 17.819C38.089 17.8116 38.098 17.8052 38.1069 17.7995C38.1199 17.7913 38.1328 17.7844 38.1458 17.7775C38.1571 17.7715 38.1685 17.7655 38.1797 17.7587C38.22 17.7322 38.2465 17.7057 38.2867 17.6855H38.3003C38.347 17.6663 38.401 17.659 38.454 17.6526C38.4868 17.6526 38.5208 17.6325 38.5536 17.6389C38.5938 17.6389 38.6268 17.6526 38.6669 17.659C38.7136 17.6654 38.7602 17.6718 38.8004 17.6855C38.8178 17.6939 38.8325 17.7055 38.848 17.7181L38.8565 17.7252L38.8737 17.7386C38.9267 17.7651 38.9733 17.7916 39.0198 17.8318C39.0198 17.8357 39.0198 17.8372 39.0212 17.8378C39.0222 17.8382 39.0238 17.8382 39.0263 17.8382C39.0528 17.8711 39.0729 17.9114 39.0931 17.9516C39.1131 17.9845 39.1461 18.0046 39.1598 18.0448C39.1598 18.0489 39.1598 18.0507 39.1609 18.0526L39.1628 18.0551L39.1661 18.0586ZM13.0396 26.1509C13.0396 27.6247 14.2337 28.8179 15.7065 28.8179C17.1794 28.8179 18.3735 27.6247 18.3735 26.1509C18.3735 24.6771 17.1794 23.484 15.7065 23.484C14.2327 23.484 13.0396 24.678 13.0396 26.1509ZM19.7056 14.8174C18.6057 14.8174 17.7061 15.718 17.7061 16.8179C17.7061 17.9178 18.6066 18.8183 19.7056 18.8174C20.8064 18.8174 21.7061 17.9178 21.7061 16.8179C21.7061 15.7171 20.8055 14.8174 19.7056 14.8174ZM23.7065 32.8179C23.7065 33.9187 24.6062 34.8183 25.7061 34.8183C26.806 34.8183 27.7065 33.9178 27.7065 32.8179C27.7065 31.718 26.806 30.8183 25.7061 30.8183C24.6062 30.8183 23.7065 31.718 23.7065 32.8179ZM24.373 23.8176C24.373 25.2915 25.5672 26.4846 27.04 26.4846C28.5129 26.4846 29.7061 25.2915 29.707 23.8176C29.707 22.3438 28.5129 21.1507 27.04 21.1507C25.5662 21.1507 24.373 22.3447 24.373 23.8176Z" fill="#516176"/>
</svg>
