<svg width="25" height="24" viewBox="0 0 25 24" fill="none" xmlns="http://www.w3.org/2000/svg">
<path opacity="0.8" d="M13.6205 11.6162L16.5775 8.6592L7.0265 3.29119C6.3935 2.94919 5.8005 2.9012 5.2805 3.2752L13.6205 11.6162ZM17.0815 15.0782L20.1555 13.3492C20.7555 13.0132 21.0845 12.5372 21.0845 12.0092C21.0845 11.4822 20.7555 11.0052 20.1565 10.6692L17.3735 9.10619L14.2405 12.2382L17.0815 15.0782ZM4.7665 4.00219C4.7025 4.19919 4.6665 4.41919 4.6665 4.66019V19.3652C4.6665 19.7462 4.7505 20.0742 4.9025 20.3352L12.9995 12.2372L4.7665 4.00219ZM13.6205 12.8572L5.5685 20.9102C5.7225 20.9692 5.8885 21.0002 6.0635 21.0002C6.3755 21.0002 6.7005 20.9082 7.0315 20.7242L16.2865 15.5272L13.6205 12.8572Z" fill="white"/>
</svg>
