<svg width="17" height="18" viewBox="0 0 17 18" fill="none" xmlns="http://www.w3.org/2000/svg">
<path d="M9.454 8.61571L12.411 5.65871L2.86 0.290707C2.227 -0.0512933 1.634 -0.0992931 1.114 0.274707L9.454 8.61571ZM12.915 12.0777L15.989 10.3487C16.589 10.0127 16.918 9.53671 16.918 9.00871C16.918 8.48171 16.589 8.00471 15.99 7.66871L13.207 6.10571L10.074 9.23771L12.915 12.0777ZM0.6 1.00171C0.536 1.19871 0.5 1.41871 0.5 1.65971V16.3647C0.5 16.7457 0.584 17.0737 0.736 17.3347L8.833 9.23671L0.6 1.00171ZM9.454 9.85671L1.402 17.9097C1.556 17.9687 1.722 17.9997 1.897 17.9997C2.209 17.9997 2.534 17.9077 2.865 17.7237L12.12 12.5267L9.454 9.85671Z" fill="white"/>
</svg>
