<svg width="17" height="18" viewBox="0 0 17 18" fill="none" xmlns="http://www.w3.org/2000/svg">
<path d="M9.204 8.6162L12.161 5.6592L2.61 0.291195C1.977 -0.0508051 1.384 -0.0988049 0.864 0.275195L9.204 8.6162ZM12.665 12.0782L15.739 10.3492C16.339 10.0132 16.668 9.5372 16.668 9.0092C16.668 8.48219 16.339 8.00519 15.74 7.66919L12.957 6.10619L9.824 9.2382L12.665 12.0782ZM0.35 1.00219C0.286 1.19919 0.25 1.41919 0.25 1.66019V16.3652C0.25 16.7462 0.334 17.0742 0.486 17.3352L8.583 9.2372L0.35 1.00219ZM9.204 9.8572L1.152 17.9102C1.306 17.9692 1.472 18.0002 1.647 18.0002C1.959 18.0002 2.284 17.9082 2.615 17.7242L11.87 12.5272L9.204 9.8572Z" fill="#516176"/>
</svg>
