<?xml version="1.0" encoding="UTF-8"?> <svg xmlns="http://www.w3.org/2000/svg" width="63" height="63" viewBox="0 0 63 63" fill="none"> <path fill-rule="evenodd" clip-rule="evenodd" d="M5.20672 39.3372C5.20672 40.9441 5.20672 42.4077 5.20672 43.9124C5.20672 45.1302 5.24209 46.3482 5.18146 47.5662C5.12217 48.2024 4.83003 48.793 4.36252 49.222C3.895 49.6509 3.28593 49.8872 2.65509 49.8844C2.03901 49.8899 1.4422 49.6671 0.976936 49.2581C0.511667 48.8491 0.210008 48.282 0.128707 47.6634C0.10671 47.2987 0.105023 46.9331 0.123654 46.5682V17.5316C0.123654 15.0855 1.03315 14.1899 3.53426 14.2053C6.84886 14.2053 10.1685 14.1541 13.4781 14.3332C16.1709 14.4984 18.7392 15.5393 20.8012 17.3013C22.8631 19.0632 24.3085 21.4521 24.9226 24.1127C26.4636 31.4 21.4967 38.2831 14.0036 39.1377C11.9825 39.3629 9.90073 39.2861 7.84426 39.3321C7.01562 39.3577 6.18696 39.3372 5.20672 39.3372ZM5.37346 34.8134C7.7432 34.8134 10.0675 34.8134 12.3917 34.8134C13.8112 34.8342 15.1981 34.381 16.3379 33.5237C17.6235 32.644 18.6267 31.4022 19.2238 29.9517C19.8208 28.5014 19.9857 26.9056 19.698 25.3614C19.2028 22.0043 16.5451 19.1181 13.3973 18.8468C10.7597 18.6063 8.08174 18.8008 5.37346 18.8008V34.8134Z" fill="#0379F7"></path> <path fill-rule="evenodd" clip-rule="evenodd" d="M21.522 15.2954C22.3557 14.1593 23.3308 13.7602 24.4677 14.1389C24.9991 14.3259 25.4537 14.6872 25.7594 15.1655C26.0651 15.6439 26.2045 16.2119 26.1553 16.7795C26.1553 18.2533 26.1553 19.7221 26.1553 21.3341C25.6421 20.0969 24.9619 18.9378 24.1343 17.89C23.3708 16.9208 22.4935 16.0495 21.522 15.2954Z" fill="#0379F7"></path> <path fill-rule="evenodd" clip-rule="evenodd" d="M44.0825 29.1281C44.8332 30.538 45.31 32.0806 45.4872 33.6725H52.1669C52.9324 33.6897 53.6868 33.8611 54.3862 34.1766C55.0857 34.4921 55.7162 34.9455 56.2409 35.5102C56.7655 36.075 57.1741 36.7399 57.4426 37.4661C57.711 38.1924 57.8341 38.9655 57.8045 39.7404C57.775 40.5154 57.5936 41.2765 57.2707 41.9797C56.9479 42.6829 56.4899 43.3139 55.9239 43.8361C55.3578 44.3582 54.6947 44.761 53.9734 45.0211C53.252 45.2811 52.4867 45.3931 51.7222 45.3506H47.7811C47.1908 45.369 46.6303 45.6179 46.2169 46.0452C45.8035 46.4725 45.5692 47.045 45.5629 47.6432C45.5886 48.2399 45.8382 48.8041 46.2608 49.2207C46.6834 49.6374 47.2471 49.8749 47.8367 49.8847C51.7627 49.8847 51.9699 49.8846 53.9 49.7056C55.7065 49.4807 57.4216 48.7731 58.869 47.6552C60.3163 46.5374 61.4439 45.0496 62.136 43.3445C62.84 41.7712 63.1174 40.0364 62.9398 38.3185C62.7622 36.6006 62.1359 34.9616 61.1254 33.5701C60.3005 32.6287 59.3752 31.7826 58.3666 31.0472C59.8099 29.8136 60.9034 28.2135 61.5346 26.4107C63.3284 20.7201 58.7708 14.4153 52.748 14.313C49.0645 14.2464 45.376 14.3079 41.6925 14.2823C39.6714 14.2823 38.6608 15.229 38.6255 17.2146C38.6255 19.6761 38.6255 20.7968 38.6255 22.9257C38.6255 23.2635 38.6255 23.4375 38.6255 23.7855C40.5453 24.8193 42.1955 26.2995 43.4408 28.1046C43.5266 28.2275 43.5974 28.3451 43.8754 28.8006V18.801C46.4826 18.801 48.8169 18.801 51.3079 18.801C54.4053 18.8317 56.5123 20.9452 56.5223 24.0055C56.5223 26.902 54.3244 29.0922 51.318 29.123L44.0825 29.1281Z" fill="#E83725"></path> <path fill-rule="evenodd" clip-rule="evenodd" d="M43.4863 34.051C42.8547 26.6409 34.3913 22.0198 27.6863 25.3103C27.5604 25.3839 27.4529 25.4859 27.3724 25.6084C27.2917 25.7309 27.2401 25.8705 27.2214 26.0165C27.3352 28.3195 26.8984 30.6161 25.9485 32.7116C24.9984 34.807 23.5631 36.6394 21.7645 38.0529C21.46 38.2801 21.2537 38.6172 21.1885 38.9945V47.3667C21.1878 47.5386 21.2048 47.7101 21.239 47.8785C21.2411 47.8886 21.2411 47.8991 21.239 47.9091C21.2731 48.0615 21.3204 48.2105 21.3805 48.3544C21.5413 48.7287 21.7895 49.058 22.1037 49.3139C22.4179 49.5696 22.7887 49.7444 23.1842 49.8231C23.3509 49.8551 23.52 49.8705 23.6896 49.8691H23.7351C24.3012 49.868 24.8494 49.6679 25.2862 49.303C25.723 48.9381 26.0212 48.431 26.13 47.8682C26.1623 47.6996 26.1792 47.5282 26.1806 47.3565C26.1806 45.3095 26.1806 43.1396 26.1806 41.108V38.0887C26.1289 36.7534 26.1712 35.4161 26.3069 34.0869C26.8122 30.9805 29.9145 28.826 32.9765 29.1485C34.5161 29.2867 35.9511 29.9956 37.0066 31.1392C38.062 32.2827 38.6637 33.7806 38.6962 35.3457C38.6962 39.276 38.6962 43.4365 38.6962 47.3667C38.6962 48.0304 38.9566 48.6669 39.42 49.1362C39.8833 49.6055 40.5117 49.8691 41.167 49.8691C41.8224 49.8691 42.4508 49.6055 42.9141 49.1362C43.3775 48.6669 43.6379 48.0304 43.6379 47.3667V43.6259C43.6479 40.5656 43.7591 37.2239 43.4863 34.051Z" fill="#0379F7"></path> </svg> 