<svg width="64" height="64" viewBox="0 0 64 64" fill="none" xmlns="http://www.w3.org/2000/svg">
<rect width="64" height="64" rx="32" fill="#F703AA"/>
<path d="M31.9993 45.3334C39.3631 45.3334 45.3327 39.3639 45.3327 32.0001C45.3327 24.6363 39.3631 18.6667 31.9993 18.6667C24.6356 18.6667 18.666 24.6363 18.666 32.0001C18.666 39.3639 24.6356 45.3334 31.9993 45.3334Z" stroke="white" stroke-width="3" stroke-linecap="round" stroke-linejoin="round"/>
<path d="M32 40C36.4183 40 40 36.4183 40 32C40 27.5817 36.4183 24 32 24C27.5817 24 24 27.5817 24 32C24 36.4183 27.5817 40 32 40Z" stroke="white" stroke-width="2" stroke-linecap="round" stroke-linejoin="round"/>
<path d="M32.0007 34.6666C33.4734 34.6666 34.6673 33.4727 34.6673 31.9999C34.6673 30.5272 33.4734 29.3333 32.0007 29.3333C30.5279 29.3333 29.334 30.5272 29.334 31.9999C29.334 33.4727 30.5279 34.6666 32.0007 34.6666Z" stroke="white" stroke-width="2" stroke-linecap="round" stroke-linejoin="round"/>
</svg>
