<?xml version="1.0" encoding="UTF-8"?> <svg xmlns="http://www.w3.org/2000/svg" xmlns:xlink="http://www.w3.org/1999/xlink" viewBox="0 0 182 53.04"> <defs> <style>.cls-1{fill:none;}.cls-2{fill:#008fbe;}.cls-3{fill:#7b868c;}.cls-4{opacity:0.5;}.cls-4,.cls-7{isolation:isolate;}.cls-5{clip-path:url(#clip-path);}.cls-6{clip-path:url(#clip-path-3);}.cls-7{opacity:0.6;}.cls-8{clip-path:url(#clip-path-5);}.cls-9{clip-path:url(#clip-path-7);}.cls-10{clip-path:url(#clip-path-9);}.cls-11{clip-path:url(#clip-path-11);}.cls-12{clip-path:url(#clip-path-13);}.cls-13{clip-path:url(#clip-path-15);}.cls-14{clip-path:url(#clip-path-17);}.cls-15{clip-path:url(#clip-path-18);}.cls-16{fill:#002169;}.cls-17{clip-path:url(#clip-path-19);}.cls-18{clip-path:url(#clip-path-20);}.cls-19{clip-path:url(#clip-path-21);}</style> <clipPath id="clip-path" transform="translate(-1)"> <rect class="cls-1" x="29" y="34.45" width="4" height="7"></rect> </clipPath> <clipPath id="clip-path-3" transform="translate(-1)"> <rect class="cls-1" x="28" y="43.45" width="7" height="4"></rect> </clipPath> <clipPath id="clip-path-5" transform="translate(-1)"> <rect class="cls-1" x="38" y="21.45" width="1" height="1"></rect> </clipPath> <clipPath id="clip-path-7" transform="translate(-1)"> <rect class="cls-1" x="43" y="30.45" width="1" height="1"></rect> </clipPath> <clipPath id="clip-path-9" transform="translate(-1)"> <rect class="cls-1" x="38" y="18.45" width="14" height="13"></rect> </clipPath> <clipPath id="clip-path-11" transform="translate(-1)"> <rect class="cls-1" x="17" y="40.45" width="3" height="4"></rect> </clipPath> <clipPath id="clip-path-13" transform="translate(-1)"> <rect class="cls-1" x="14" y="43.45" width="5" height="5"></rect> </clipPath> <clipPath id="clip-path-15" transform="translate(-1)"> <rect class="cls-1" x="15" y="39.45" width="2" height="3"></rect> </clipPath> <clipPath id="clip-path-17" transform="translate(-1)"> <rect class="cls-1" x="16" y="34.45" width="17" height="19"></rect> </clipPath> <clipPath id="clip-path-18" transform="translate(-1)"> <rect class="cls-1" x="20" y="18.45" width="33" height="29"></rect> </clipPath> <clipPath id="clip-path-19" transform="translate(-1)"> <rect class="cls-1" x="40" y="13.45" width="19" height="18"></rect> </clipPath> <clipPath id="clip-path-20" transform="translate(-1)"> <rect class="cls-1" x="7" y="38.45" width="10" height="12"></rect> </clipPath> <clipPath id="clip-path-21" transform="translate(-1)"> <rect class="cls-1" y="28.45" width="11" height="9"></rect> </clipPath> </defs> <title>alalalaRecurso 2</title> <g id="Capa_2" data-name="Capa 2"> <g id="Capa_1-2" data-name="Capa 1"> <path class="cls-2" d="M85.36,45.88a2.13,2.13,0,0,0-3.91,0,2.66,2.66,0,0,0-.12.84c0,.09,0,.13.12.13h3.91c.08,0,.12,0,.12-.13a2.66,2.66,0,0,0-.12-.84m-6,4.36A7.56,7.56,0,0,1,79,47.83a7.86,7.86,0,0,1,.33-2.46,4.39,4.39,0,0,1,8.15,0,9.31,9.31,0,0,1,.33,3,.2.2,0,0,1-.21.21H81.5c-.09,0-.13,0-.13.12a2,2,0,0,0,.13.77,2.14,2.14,0,0,0,2.2,1.48A3.13,3.13,0,0,0,86,50c.09-.09.22-.13.3,0L87.56,51c.08.08.08.17,0,.29A5.28,5.28,0,0,1,83.49,53a4.05,4.05,0,0,1-4.16-2.76" transform="translate(-1)"></path> <path class="cls-2" d="M95.11,49.44v-.76a.12.12,0,0,0-.13-.13H93.33c-1.49,0-2.12.42-2.12,1.36s.59,1.22,1.69,1.22c1.4,0,2.21-.55,2.21-1.69m.21,3.35a.2.2,0,0,1-.21-.21v-.72A3.26,3.26,0,0,1,92.31,53C90.49,53,89,52.07,89,50s1.53-3.14,4-3.14h2c.08,0,.13,0,.13-.12v-.47c0-1.15-.55-1.66-2.21-1.66a3.35,3.35,0,0,0-2.24.68.2.2,0,0,1-.3,0l-.76-1.36c0-.08,0-.21,0-.25a5.72,5.72,0,0,1,3.52-1c3,0,4.11,1,4.11,3.44v6.7Z" transform="translate(-1)"></path> <path class="cls-2" d="M102,52.92c-2,0-2.72-.94-2.72-2.84V38.8h2.29V50c0,.68.26.89.85.89h.47a.19.19,0,0,1,.21.21v1.87Z" transform="translate(-1)"></path> <path class="cls-2" d="M107.53,52.92c-2,0-2.76-1-2.76-2.89V44.82c0-.09,0-.13-.12-.13H104a.19.19,0,0,1-.21-.21v-1.4a.19.19,0,0,1,.21-.21h.68c.08,0,.12,0,.12-.13V39.81h2.29v3.06h1.66v1.78h-1.66v5.26c0,.67.3.93.94.93h.51a.2.2,0,0,1,.21.21v1.87Z" transform="translate(-1)"></path> <path class="cls-2" d="M116.56,52.79V46.85c0-1.27-.63-2.16-1.86-2.16a1.92,1.92,0,0,0-1.91,2.16v5.94H110.5v-14h2.29v5a3.16,3.16,0,0,1,2.88-1.14,3.42,3.42,0,0,1,3.18,3.43v6.7Z" transform="translate(-1)"></path> <path class="cls-3" d="M119.87,51.18c-.09-.09-.13-.21,0-.3l1.27-1.48a.2.2,0,0,1,.3,0,6.22,6.22,0,0,0,3.81,1.48c1.65,0,2.63-.85,2.63-2,0-1-.64-1.66-2.54-2l-.72-.09c-2.72-.38-4.2-1.65-4.2-4,0-2.54,1.86-4.19,4.75-4.19a7.67,7.67,0,0,1,4.53,1.4.2.2,0,0,1,.05.29l-1,1.53a.21.21,0,0,1-.3,0,6,6,0,0,0-3.35-1.1c-1.4,0-2.2.76-2.2,1.87s.68,1.61,2.59,1.9l.72.09c2.71.38,4.15,1.65,4.15,4.07S128.56,53,125.08,53a8.07,8.07,0,0,1-5.21-1.86" transform="translate(-1)"></path> <path class="cls-3" d="M131.78,50.29a7.87,7.87,0,0,1-.29-2.46,7.83,7.83,0,0,1,.29-2.46,4,4,0,0,1,4.12-2.76,4.29,4.29,0,0,1,3.43,1.53c0,.08.09.21,0,.29L138,45.58a.22.22,0,0,1-.3,0,2.28,2.28,0,0,0-1.82-.85A1.83,1.83,0,0,0,134,46a5.68,5.68,0,0,0-.21,1.83,4,4,0,0,0,.55,2.54,1.6,1.6,0,0,0,1,.55,2.26,2.26,0,0,0,2.29-.85c.08-.08.17-.08.29,0l1.32,1.15c.08.08.08.17,0,.3A4.32,4.32,0,0,1,135.85,53a4.07,4.07,0,0,1-4.07-2.75" transform="translate(-1)"></path> <path class="cls-3" d="M140.94,52.79V42.87h2.29v9.92Zm0-11.79V38.8h2.29V41Z" transform="translate(-1)"></path> <path class="cls-3" d="M151.25,45.88a2.13,2.13,0,0,0-3.91,0,2.66,2.66,0,0,0-.12.84c0,.09,0,.13.12.13h3.91c.08,0,.12,0,.12-.13a2.66,2.66,0,0,0-.12-.84m-6,4.36a7.26,7.26,0,0,1-.34-2.41,7.54,7.54,0,0,1,.34-2.46,4.38,4.38,0,0,1,8.14,0,9.23,9.23,0,0,1,.34,3,.21.21,0,0,1-.22.21h-6.1c-.09,0-.13,0-.13.12a2,2,0,0,0,.13.77,2.14,2.14,0,0,0,2.2,1.48A3.14,3.14,0,0,0,152,50c.08-.09.21-.13.29,0L153.49,51c.09.08.09.17,0,.29a5.26,5.26,0,0,1-4.07,1.7,4,4,0,0,1-4.15-2.76" transform="translate(-1)"></path> <path class="cls-3" d="M161.38,52.79V46.85c0-1.27-.64-2.16-1.87-2.16a1.92,1.92,0,0,0-1.9,2.16v5.94h-2.29V42.87h2.07a.2.2,0,0,1,.22.21v.72a3.15,3.15,0,0,1,2.88-1.14,3.42,3.42,0,0,1,3.18,3.43v6.7Z" transform="translate(-1)"></path> <path class="cls-3" d="M165.53,50.29a7.87,7.87,0,0,1-.29-2.46,7.83,7.83,0,0,1,.29-2.46,4,4,0,0,1,4.12-2.76,4.29,4.29,0,0,1,3.43,1.53c0,.08.09.21,0,.29l-1.31,1.15a.22.22,0,0,1-.3,0,2.28,2.28,0,0,0-1.82-.85A1.83,1.83,0,0,0,167.78,46a5.68,5.68,0,0,0-.21,1.83,4,4,0,0,0,.55,2.54,1.6,1.6,0,0,0,1,.55,2.26,2.26,0,0,0,2.29-.85c.08-.08.17-.08.29,0L173,51.22c.08.08.08.17,0,.3A4.32,4.32,0,0,1,169.6,53a4.07,4.07,0,0,1-4.07-2.75" transform="translate(-1)"></path> <path class="cls-3" d="M180.54,45.88a2.13,2.13,0,0,0-3.9,0,2.66,2.66,0,0,0-.12.84c0,.09,0,.13.12.13h3.9c.09,0,.13,0,.13-.13,0-.33-.08-.59-.13-.84m-6,4.36a7.53,7.53,0,0,1-.34-2.41,7.82,7.82,0,0,1,.34-2.46,4.38,4.38,0,0,1,8.14,0,9,9,0,0,1,.34,3,.2.2,0,0,1-.21.21h-6.1c-.09,0-.13,0-.13.12a2,2,0,0,0,.13.77,2.13,2.13,0,0,0,2.2,1.48,3.13,3.13,0,0,0,2.33-.93c.09-.09.21-.13.3,0L182.75,51c.08.08.08.17,0,.29a5.28,5.28,0,0,1-4.07,1.7,4.05,4.05,0,0,1-4.16-2.76" transform="translate(-1)"></path> <g class="cls-4"> <g class="cls-5"> <path class="cls-3" d="M29.68,35.53l3.14,5.39-3.14-5.39-.12-.13Z" transform="translate(-1)"></path> </g> </g> <g class="cls-4"> <g class="cls-5"> <path class="cls-3" d="M29.68,35.53l3.14,5.39-3.14-5.39-.12-.13Z" transform="translate(-1)"></path> </g> </g> <g class="cls-4"> <g class="cls-6"> <path class="cls-3" d="M34.52,44.18s-.05.09-.05.09l-1.65,2.84H28.88a.42.42,0,0,1-.3-.13.42.42,0,0,0,.3.13h3.94l1.65-2.84C34.52,44.22,34.52,44.22,34.52,44.18Z" transform="translate(-1)"></path> </g> </g> <g class="cls-4"> <g class="cls-6"> <path class="cls-3" d="M34.52,44.18s-.05.09-.05.09l-1.65,2.84H28.88a.42.42,0,0,1-.3-.13.42.42,0,0,0,.3.13h3.94l1.65-2.84C34.52,44.22,34.52,44.22,34.52,44.18Z" transform="translate(-1)"></path> </g> </g> <g class="cls-7"> <g class="cls-8"> <path class="cls-2" d="M38.88,22.3v0Z" transform="translate(-1)"></path> </g> </g> <g class="cls-4"> <g class="cls-8"> <path class="cls-3" d="M38.88,22.3v0Z" transform="translate(-1)"></path> </g> </g> <g class="cls-7"> <g class="cls-9"> <path class="cls-2" d="M43.76,30.78s.09.09.13.09S43.8,30.82,43.76,30.78Z" transform="translate(-1)"></path> </g> </g> <g class="cls-4"> <g class="cls-9"> <path class="cls-3" d="M43.76,30.78s.09.09.13.09S43.8,30.82,43.76,30.78Z" transform="translate(-1)"></path> </g> </g> <g class="cls-7"> <g class="cls-10"> <path class="cls-2" d="M44.48,19.29h-4L38.93,22s0,.12,0,.21a.31.31,0,0,1,0-.21l1.57-2.72h4a.38.38,0,0,1,.34.21L51.43,31,44.82,19.5A.34.34,0,0,0,44.48,19.29Z" transform="translate(-1)"></path> </g> </g> <g class="cls-4"> <g class="cls-10"> <path class="cls-3" d="M44.48,19.29h-4L38.93,22s0,.12,0,.21a.31.31,0,0,1,0-.21l1.57-2.72h4a.38.38,0,0,1,.34.21L51.43,31,44.82,19.5A.34.34,0,0,0,44.48,19.29Z" transform="translate(-1)"></path> </g> </g> <path class="cls-3" d="M28.62,47l0,0-6.7-11.58,6.7,11.53S28.58,46.94,28.62,47Z" transform="translate(-1)"></path> <path class="cls-3" d="M34.52,44.18a.37.37,0,0,0-.05-.3A.25.25,0,0,1,34.52,44.18Z" transform="translate(-1)"></path> <path class="cls-3" d="M34.47,43.89,32.78,41Z" transform="translate(-1)"></path> <path class="cls-3" d="M29.34,35.36a.32.32,0,0,1,.22.09c0-.09-.13-.09-.22-.09h0Z" transform="translate(-1)"></path> <path class="cls-3" d="M21.88,35.36l6.7,11.53s0,0,0,0a.41.41,0,0,0,.3.12h3.94l1.66-2.84s0,0,0-.08a.4.4,0,0,0,0-.3l-1.7-2.92-3.14-5.39-.12-.13c-.09,0-.13-.08-.22-.08H21.88Z" transform="translate(-1)"></path> <path class="cls-2" d="M38.93,22.43s0,0,0-.09,0,.05,0,.09l4.79,8.31,0,0,0,0Z" transform="translate(-1)"></path> <path class="cls-2" d="M43.89,30.87a.32.32,0,0,0,.21,0h0A.19.19,0,0,1,43.89,30.87Z" transform="translate(-1)"></path> <g class="cls-4"> <g class="cls-11"> <path class="cls-3" d="M19.38,44.22a.28.28,0,0,0,0-.17l-2-3.43,2,3.43C19.34,44.1,19.38,44.14,19.38,44.22Z" transform="translate(-1)"></path> </g> </g> <g class="cls-4"> <g class="cls-11"> <path class="cls-3" d="M19.38,44.22a.28.28,0,0,0,0-.17l-2-3.43,2,3.43C19.34,44.1,19.38,44.14,19.38,44.22Z" transform="translate(-1)"></path> </g> </g> <g class="cls-4"> <g class="cls-12"> <path class="cls-3" d="M17,48.42l-2.41-4.15v0L17,48.42l1.91-3.26Z" transform="translate(-1)"></path> </g> </g> <g class="cls-4"> <g class="cls-12"> <path class="cls-3" d="M17,48.42l-2.41-4.15v0L17,48.42l1.91-3.26Z" transform="translate(-1)"></path> </g> </g> <g class="cls-4"> <g class="cls-13"> <path class="cls-3" d="M16.92,39.81l-1.06,1.83Z" transform="translate(-1)"></path> </g> </g> <g class="cls-4"> <g class="cls-13"> <path class="cls-3" d="M16.92,39.81l-1.06,1.83Z" transform="translate(-1)"></path> </g> </g> <path class="cls-3" d="M18.87,45.16l.47-.77a.25.25,0,0,0,0-.17.25.25,0,0,1,0,.17Z" transform="translate(-1)"></path> <path class="cls-3" d="M16.92,39.81l.43.81Z" transform="translate(-1)"></path> <path class="cls-3" d="M14.59,43.88l1.27-2.24-1.27,2.24a.32.32,0,0,0,0,.39A.31.31,0,0,1,14.59,43.88Z" transform="translate(-1)"></path> <path class="cls-3" d="M14.59,43.88a.32.32,0,0,0,0,.39v0L17,48.46l1.9-3.26.47-.76a.28.28,0,0,0,0-.17.25.25,0,0,0,0-.17l-2-3.44-.47-.76-1.06,1.74Z" transform="translate(-1)"></path> <g class="cls-4"> <g class="cls-14"> <path class="cls-3" d="M28.62,47l0,0-6.7-11.58H19.72a.45.45,0,0,0-.34.21l-2.46,4.29.47.76,2,3.43a.28.28,0,0,1,0,.17.27.27,0,0,1,0,.17l-.47.77L17,48.42l2.41,4.16a.45.45,0,0,0,.34.21h9.63a.47.47,0,0,0,.34-.21l3.18-5.47H29A.44.44,0,0,1,28.62,47Z" transform="translate(-1)"></path> </g> </g> <g class="cls-4"> <g class="cls-15"> <path class="cls-3" d="M51.43,31H44.1a.38.38,0,0,1-.21,0s-.09,0-.13-.09l0,0-4.79-8.35s0,0,0-.09v-.08a.33.33,0,0,1,0-.21l1.57-2.72H28.92a.38.38,0,0,0-.34.22L20.78,33a.36.36,0,0,0,0,.42l1.1,2h7.46a.32.32,0,0,1,.22.09l.12.12L32.82,41l1.7,2.92a.41.41,0,0,1,0,.3.19.19,0,0,1,0,.09l-1.66,2.84H44.52a.38.38,0,0,0,.34-.22l7.8-13.48a.36.36,0,0,0,0-.42Z" transform="translate(-1)"></path> </g> </g> <path class="cls-2" d="M38.88,22.3a.14.14,0,0,0,0,.09l4.79,8.31,0,0s.09.09.13.09a.32.32,0,0,0,.21,0h7.33L44.82,19.42a.41.41,0,0,0-.34-.21h-4l-1.57,2.71s0,.13,0,.21Z" transform="translate(-1)"></path> <polygon class="cls-2" points="65.91 38.8 68.33 38.8 68.33 44.65 73.88 44.65 73.88 38.8 76.3 38.8 76.3 52.79 73.88 52.79 73.88 46.81 68.33 46.81 68.33 52.79 65.91 52.79 65.91 38.8"></polygon> <path class="cls-16" d="M166.72,17.13a5.19,5.19,0,0,1,10.26,0Zm5.09-8.95c-7.08,0-11.07,5.56-11.07,11.41,0,6.23,4.29,11.7,11.11,11.7,3.44,0,6.79-1.27,8.69-3.56a5.92,5.92,0,0,0,1.53-3.18,1,1,0,0,0-.21-.72,1,1,0,0,0-.85-.34H177.7a1.67,1.67,0,0,0-1.44.72,4.92,4.92,0,0,1-4.41,2.16,5.08,5.08,0,0,1-5.17-4.87H181a1.76,1.76,0,0,0,1.4-.47,2.2,2.2,0,0,0,.51-1.7,12.09,12.09,0,0,0-2.59-7.59,10.79,10.79,0,0,0-8.48-3.56m9-3.13a1.58,1.58,0,0,0,1-.34,1.45,1.45,0,0,0,.38-1.06V1.74a1.82,1.82,0,0,0-.38-1.36,1.35,1.35,0,0,0-1-.38c-.34,0-.64,0-1.19.08L163.29,1.7a1.07,1.07,0,0,0-.85.38,1.25,1.25,0,0,0-.26.85V4a1.07,1.07,0,0,0,.22.76,1,1,0,0,0,.8.3ZM100.41,17.13a4.86,4.86,0,0,1,5.13-4.41,4.93,4.93,0,0,1,5.13,4.41ZM152.69,29a1.78,1.78,0,0,0,.42,1.23,1.58,1.58,0,0,0,1.36.6h2.41a1.58,1.58,0,0,0,1.36-.6,1.74,1.74,0,0,0,.43-1.23V2.29a1.78,1.78,0,0,0-.43-1.23,1.6,1.6,0,0,0-1.36-.59h-2.41a1.6,1.6,0,0,0-1.36.59,1.82,1.82,0,0,0-.42,1.23ZM140.18,9H139a1.48,1.48,0,0,0-1,.34,1.32,1.32,0,0,0-.39,1.06v1.39A1.32,1.32,0,0,0,138,12.8a1.42,1.42,0,0,0,1,.34h1.15V23.36a7.2,7.2,0,0,0,2,5.56,7.43,7.43,0,0,0,5.6,1.95h1.74a1.58,1.58,0,0,0,1-.34,1.47,1.47,0,0,0,.42-1.06V27.69a1.37,1.37,0,0,0-.42-1.06,1.49,1.49,0,0,0-1-.34h-.26a3.36,3.36,0,0,1-2.37-.77,3.5,3.5,0,0,1-.93-2.58v-9.8h3.73a1.53,1.53,0,0,0,1-.34,1.36,1.36,0,0,0,.38-1.06V10.35a1.36,1.36,0,0,0-.38-1.06,1.44,1.44,0,0,0-1-.34H146V2.29a1.82,1.82,0,0,0-.42-1.23,1.6,1.6,0,0,0-1.36-.59H142a1.6,1.6,0,0,0-1.36.59,1.82,1.82,0,0,0-.42,1.23V9Zm-12.76-.77c-5.6,0-9.29,2.67-9.29,6.91a5.18,5.18,0,0,0,1.44,3.69,9.15,9.15,0,0,0,4.71,2.46l4.66,1.19c1.27.34,2.42.72,2.42,1.82,0,1.74-1.82,2.33-3.82,2.33a6.21,6.21,0,0,1-2.8-.59,3.51,3.51,0,0,1-1.39-1.23,3,3,0,0,0-.89-1.1,2.19,2.19,0,0,0-1.11-.17h-2.54a1.28,1.28,0,0,0-1,.38,1.46,1.46,0,0,0-.25.89,4.84,4.84,0,0,0,1,2.76c1.57,2.08,4.79,3.77,8.95,3.77s9.75-1.69,9.75-7.16a6,6,0,0,0-1.14-3.61,8,8,0,0,0-4.67-2.71l-4.62-1.19c-1.91-.51-2.84-.85-2.84-2s1-2.08,3.39-2.08a4.68,4.68,0,0,1,3.48,1.14c.68.72.55,1.11,1.1,1.36a2.71,2.71,0,0,0,1.27.17h2.29a1,1,0,0,0,.85-.3,1.28,1.28,0,0,0,.25-.93,5,5,0,0,0-1.9-3.48,11.18,11.18,0,0,0-7.25-2.29m-21.92,0c-7.09,0-11.07,5.56-11.07,11.41,0,6.23,4.28,11.7,11.11,11.7,3.43,0,6.78-1.27,8.69-3.56a5.92,5.92,0,0,0,1.53-3.18,1,1,0,0,0-.22-.72,1,1,0,0,0-.84-.34h-3.31a1.66,1.66,0,0,0-1.44.72,4.93,4.93,0,0,1-4.41,2.16,5.09,5.09,0,0,1-5.18-4.87h14.25A1.75,1.75,0,0,0,116,21a2.2,2.2,0,0,0,.51-1.7,12.09,12.09,0,0,0-2.59-7.59,10.62,10.62,0,0,0-8.43-3.56m-18.66-7a1.92,1.92,0,0,0-.47,1.4V21.12h-.08S76.11,3,75.65,2.16A3.4,3.4,0,0,0,74.42.85,3.74,3.74,0,0,0,72.34.38H69a1.94,1.94,0,0,0-1.61.68,1.9,1.9,0,0,0-.47,1.4V28.79a1.9,1.9,0,0,0,.47,1.4,1.94,1.94,0,0,0,1.61.68H70.9A1.95,1.95,0,0,0,73,28.79v-19h.09s10.56,18.7,11,19.38a3.42,3.42,0,0,0,3,1.69h3.27a1.93,1.93,0,0,0,2.07-2.07V5h42.7a1.53,1.53,0,0,0,1-.34,1.41,1.41,0,0,0,.38-1.06V1.87a1.36,1.36,0,0,0-.38-1.06,1.44,1.44,0,0,0-1-.34H88.45a1.93,1.93,0,0,0-1.61.67" transform="translate(-1)"></path> <g class="cls-7"> <g class="cls-17"> <path class="cls-2" d="M58.85,22,54.06,13.7a.43.43,0,0,0-.34-.22H44.1a.44.44,0,0,0-.34.22L40.5,19.33h4a.38.38,0,0,1,.34.22L51.43,31h2.25a.41.41,0,0,0,.34-.21l4.79-8.31A.37.37,0,0,0,58.85,22Z" transform="translate(-1)"></path> </g> </g> <g class="cls-4"> <g class="cls-18"> <path class="cls-3" d="M14.55,44.22a.5.5,0,0,1,0-.38l1.27-2.24,1-1.79L16.37,39a.34.34,0,0,0-.3-.17H10.31A.31.31,0,0,0,10,39L7.08,44a.49.49,0,0,0,0,.34l2.93,5a.37.37,0,0,0,.3.17h5.81a.44.44,0,0,0,.29-.17l.55-1-2.41-4.2Z" transform="translate(-1)"></path> </g> </g> <g class="cls-4"> <g class="cls-19"> <path class="cls-3" d="M8.27,37.18l2.21-3.77a.33.33,0,0,0,0-.38L8.27,29.26a.37.37,0,0,0-.34-.17H3.61a.49.49,0,0,0-.34.17L1.06,33a.33.33,0,0,0,0,.38l2.21,3.77a.37.37,0,0,0,.34.17H8A.28.28,0,0,0,8.27,37.18Z" transform="translate(-1)"></path> </g> </g> </g> </g> </svg> 