<svg width="40" height="40" viewBox="0 0 40 40" fill="none" xmlns="http://www.w3.org/2000/svg">
<rect width="40" height="40" rx="20" fill="white"/>
<path d="M15.835 20C15.835 17.6989 17.6999 15.833 20.001 15.833C22.3021 15.833 24.168 17.6989 24.168 20C24.168 22.3011 22.3021 24.167 20.001 24.167C17.6999 24.167 15.835 22.3011 15.835 20ZM13.5824 20C13.5824 23.545 16.456 26.4186 20.001 26.4186C23.546 26.4186 26.4196 23.545 26.4196 20C26.4196 16.455 23.546 13.5814 20.001 13.5814C16.456 13.5814 13.5824 16.455 13.5824 20ZM25.1737 13.3269C25.1736 13.6236 25.2614 13.9136 25.4261 14.1604C25.5909 14.4071 25.8251 14.5994 26.0991 14.7131C26.3731 14.8267 26.6747 14.8566 26.9657 14.7988C27.2567 14.741 27.5241 14.5983 27.7339 14.3886C27.9438 14.1789 28.0867 13.9117 28.1447 13.6207C28.2027 13.3298 28.1731 13.0282 28.0597 12.754C27.9463 12.4799 27.7541 12.2455 27.5075 12.0806C27.2609 11.9157 26.9709 11.8276 26.6743 11.8275H26.6737C26.276 11.8277 25.8947 11.9857 25.6134 12.2668C25.3322 12.548 25.174 12.9292 25.1737 13.3269ZM14.951 30.1747C13.7323 30.1192 13.0699 29.9162 12.6297 29.7447C12.0461 29.5175 11.6297 29.2469 11.1919 28.8097C10.7541 28.3725 10.4831 27.9565 10.2569 27.3729C10.0853 26.9329 9.88228 26.2703 9.82688 25.0516C9.76628 23.734 9.75418 23.3382 9.75418 20.0001C9.75418 16.662 9.76728 16.2673 9.82688 14.9486C9.88238 13.7299 10.0869 13.0686 10.2569 12.6273C10.4841 12.0437 10.7547 11.6273 11.1919 11.1895C11.6291 10.7517 12.0451 10.4807 12.6297 10.2545C13.0697 10.0829 13.7323 9.8799 14.951 9.8245C16.2686 9.7639 16.6644 9.7518 20.001 9.7518C23.3376 9.7518 23.7338 9.7649 25.0525 9.8245C26.2712 9.88 26.9325 10.0845 27.3738 10.2545C27.9574 10.4807 28.3738 10.7523 28.8116 11.1895C29.2494 11.6267 29.5194 12.0437 29.7466 12.6273C29.9182 13.0673 30.1212 13.7299 30.1766 14.9486C30.2372 16.2673 30.2493 16.662 30.2493 20.0001C30.2493 23.3382 30.2372 23.7329 30.1766 25.0516C30.1211 26.2703 29.9171 26.9327 29.7466 27.3729C29.5194 27.9565 29.2488 28.3729 28.8116 28.8097C28.3744 29.2465 27.9574 29.5175 27.3738 29.7447C26.9338 29.9163 26.2712 30.1193 25.0525 30.1747C23.7349 30.2353 23.3391 30.2474 20.001 30.2474C16.6629 30.2474 16.2682 30.2353 14.951 30.1747ZM14.8475 7.5757C13.5168 7.6363 12.6075 7.8473 11.8134 8.1563C10.991 8.4754 10.2948 8.9035 9.59908 9.5981C8.90338 10.2927 8.47638 10.99 8.15728 11.8124C7.84828 12.607 7.63728 13.5158 7.57668 14.8465C7.51508 16.1793 7.50098 16.6054 7.50098 20C7.50098 23.3946 7.51508 23.8207 7.57668 25.1535C7.63728 26.4843 7.84828 27.393 8.15728 28.1876C8.47638 29.0095 8.90348 29.7076 9.59908 30.4019C10.2947 31.0962 10.991 31.5237 11.8134 31.8437C12.609 32.1527 13.5168 32.3637 14.8475 32.4243C16.181 32.4849 16.6064 32.5 20.001 32.5C23.3956 32.5 23.8217 32.4859 25.1545 32.4243C26.4853 32.3637 27.394 32.1527 28.1886 31.8437C29.0105 31.5237 29.7072 31.0965 30.4029 30.4019C31.0986 29.7073 31.5247 29.0095 31.8447 28.1876C32.1537 27.393 32.3657 26.4842 32.4253 25.1535C32.4859 23.8197 32.5 23.3946 32.5 20C32.5 16.6054 32.4859 16.1793 32.4253 14.8465C32.3647 13.5157 32.1537 12.6065 31.8447 11.8124C31.5247 10.9905 31.0975 10.2938 30.4029 9.5981C29.7083 8.9024 29.0105 8.4754 28.1896 8.1563C27.394 7.8473 26.4852 7.6353 25.1555 7.5757C23.8227 7.5151 23.3966 7.5 20.002 7.5C16.6074 7.5 16.181 7.5141 14.8475 7.5757Z" fill="#010101"/>
</svg>
