<svg width="24" height="24" viewBox="0 0 24 24" fill="none" xmlns="http://www.w3.org/2000/svg">
<rect opacity="0.8" width="24" height="24" rx="12" fill="white"/>
<path d="M9.50064 12C9.50064 10.6193 10.6196 9.4998 12.0002 9.4998C13.3809 9.4998 14.5004 10.6193 14.5004 12C14.5004 13.3807 13.3809 14.5002 12.0002 14.5002C10.6196 14.5002 9.50064 13.3807 9.50064 12ZM8.14908 12C8.14908 14.127 9.87324 15.8512 12.0002 15.8512C14.1272 15.8512 15.8514 14.127 15.8514 12C15.8514 9.873 14.1272 8.14884 12.0002 8.14884C9.87324 8.14884 8.14908 9.873 8.14908 12ZM15.1039 7.99614C15.1038 8.17414 15.1565 8.34817 15.2553 8.49621C15.3542 8.64426 15.4947 8.75967 15.6591 8.82785C15.8235 8.89604 16.0045 8.91393 16.1791 8.87928C16.3537 8.84462 16.5141 8.75897 16.64 8.63315C16.7659 8.50733 16.8517 8.347 16.8865 8.17243C16.9213 7.99787 16.9035 7.8169 16.8355 7.65242C16.7674 7.48794 16.6521 7.34733 16.5042 7.24838C16.3562 7.14943 16.1822 7.09657 16.0042 7.0965H16.0039C15.7653 7.09661 15.5365 7.19142 15.3677 7.3601C15.199 7.52878 15.1041 7.75754 15.1039 7.99614ZM8.97024 18.1048C8.23902 18.0715 7.84158 17.9497 7.57746 17.8468C7.2273 17.7105 6.97746 17.5481 6.71478 17.2858C6.4521 17.0235 6.2895 16.7739 6.15378 16.4237C6.05082 16.1597 5.92902 15.7622 5.89578 15.031C5.85942 14.2404 5.85216 14.0029 5.85216 12.0001C5.85216 9.9972 5.86002 9.76038 5.89578 8.96916C5.92908 8.23794 6.05178 7.84116 6.15378 7.57638C6.2901 7.22622 6.45246 6.97638 6.71478 6.7137C6.9771 6.45102 7.2267 6.28842 7.57746 6.1527C7.84146 6.04974 8.23902 5.92794 8.97024 5.8947C9.7608 5.85834 9.99828 5.85108 12.0002 5.85108C14.0022 5.85108 14.2399 5.85894 15.0311 5.8947C15.7624 5.928 16.1591 6.0507 16.4239 6.1527C16.7741 6.28842 17.0239 6.45138 17.2866 6.7137C17.5493 6.97602 17.7113 7.22622 17.8476 7.57638C17.9506 7.84038 18.0724 8.23794 18.1056 8.96916C18.142 9.76038 18.1492 9.9972 18.1492 12.0001C18.1492 14.0029 18.142 14.2397 18.1056 15.031C18.0723 15.7622 17.9499 16.1596 17.8476 16.4237C17.7113 16.7739 17.5489 17.0237 17.2866 17.2858C17.0243 17.5479 16.7741 17.7105 16.4239 17.8468C16.1599 17.9498 15.7624 18.0716 15.0311 18.1048C14.2406 18.1412 14.0031 18.1484 12.0002 18.1484C9.99738 18.1484 9.76056 18.1412 8.97024 18.1048ZM8.90814 4.54542C8.10972 4.58178 7.56414 4.70838 7.08768 4.89378C6.59424 5.08524 6.17652 5.3421 5.7591 5.75886C5.34168 6.17562 5.08548 6.594 4.89402 7.08744C4.70862 7.5642 4.58202 8.10948 4.54566 8.9079C4.5087 9.70758 4.50024 9.96324 4.50024 12C4.50024 14.0368 4.5087 14.2924 4.54566 15.0921C4.58202 15.8906 4.70862 16.4358 4.89402 16.9126C5.08548 17.4057 5.34174 17.8246 5.7591 18.2411C6.17646 18.6577 6.59424 18.9142 7.08768 19.1062C7.56504 19.2916 8.10972 19.4182 8.90814 19.4546C9.70824 19.4909 9.96348 19.5 12.0002 19.5C14.037 19.5 14.2927 19.4915 15.0923 19.4546C15.8908 19.4182 16.436 19.2916 16.9128 19.1062C17.4059 18.9142 17.824 18.6579 18.2414 18.2411C18.6588 17.8244 18.9145 17.4057 19.1065 16.9126C19.2919 16.4358 19.4191 15.8905 19.4548 15.0921C19.4912 14.2918 19.4996 14.0368 19.4996 12C19.4996 9.96324 19.4912 9.70758 19.4548 8.9079C19.4185 8.10942 19.2919 7.5639 19.1065 7.08744C18.9145 6.5943 18.6581 6.17628 18.2414 5.75886C17.8246 5.34144 17.4059 5.08524 16.9134 4.89378C16.436 4.70838 15.8908 4.58118 15.0929 4.54542C14.2933 4.50906 14.0376 4.5 12.0008 4.5C9.96408 4.5 9.70824 4.50846 8.90814 4.54542Z" fill="#010101"/>
</svg>
