<svg width="32" height="32" viewBox="0 0 32 32" fill="none" xmlns="http://www.w3.org/2000/svg">
<rect width="32" height="32" rx="16" fill="none"/>
<path d="M24.8833 23.5502C23.8333 23.5252 22.8083 23.5252 21.7583 23.5502C21.5333 23.5502 21.4833 23.5002 21.4833 23.2752C21.4833 21.4252 21.4833 19.5502 21.4833 17.7002C21.4833 17.2752 21.4583 16.8502 21.3333 16.4502C20.9583 15.1502 19.4583 14.6752 18.3833 15.5502C17.8083 16.0002 17.5833 16.6252 17.5833 17.3752C17.5833 19.1252 17.5833 20.8752 17.5833 22.6252C17.5833 22.8502 17.5583 23.0752 17.5833 23.3252C17.6083 23.5252 17.5083 23.5752 17.3333 23.5502C16.2583 23.5502 15.2083 23.5502 14.1333 23.5502C13.9333 23.5502 13.8833 23.5002 13.8833 23.3002C13.9083 21.7252 13.9083 20.1502 13.9083 18.5502C13.9083 16.6002 13.9083 14.6502 13.8833 12.7252C13.8833 12.5002 13.9333 12.4502 14.1333 12.4502C15.2083 12.4502 16.2583 12.4502 17.3333 12.4502C17.5333 12.4502 17.5833 12.5002 17.5833 12.7002C17.5833 13.1002 17.5833 13.5002 17.5833 13.9752C17.6583 13.9002 17.6833 13.8752 17.7083 13.8502C18.6833 12.4252 20.0583 12.0252 21.6833 12.2752C23.5583 12.5752 24.7583 13.8752 25.0583 15.8752C25.1333 16.3502 25.1583 16.8252 25.1583 17.3002C25.1583 19.3002 25.1583 21.2752 25.1583 23.2752C25.1583 23.4752 25.1083 23.5502 24.8833 23.5502Z" fill="#010101"/>
<path d="M11.883 18.0002C11.883 19.7502 11.883 21.5002 11.883 23.2502C11.883 23.4752 11.833 23.5502 11.608 23.5502C10.558 23.5252 9.50801 23.5502 8.45801 23.5502C8.25801 23.5502 8.20801 23.5002 8.20801 23.3002C8.20801 19.7752 8.20801 16.2252 8.20801 12.7002C8.20801 12.5252 8.25801 12.4502 8.45801 12.4502C9.53301 12.4502 10.608 12.4502 11.683 12.4502C11.908 12.4502 11.933 12.5252 11.933 12.7252C11.883 14.4752 11.883 16.2252 11.883 18.0002Z" fill="#010101"/>
<path d="M12.0581 9.55001C11.8081 10.55 10.7831 11.125 9.60813 10.925C8.35813 10.725 7.65813 9.50001 8.10813 8.30001C8.40813 7.55001 9.13313 7.10001 10.0581 7.12501C11.4581 7.10001 12.3831 8.22501 12.0581 9.55001Z" fill="#010101"/>
</svg>
