<svg width="40" height="40" viewBox="0 0 40 40" fill="none" xmlns="http://www.w3.org/2000/svg">
<rect width="40" height="40" rx="20" fill="white"/>
<path d="M31.1035 29.4375C29.791 29.4063 28.5098 29.4063 27.1973 29.4375C26.916 29.4375 26.8535 29.375 26.8535 29.0938C26.8535 26.7813 26.8535 24.4375 26.8535 22.125C26.8535 21.5938 26.8223 21.0625 26.666 20.5625C26.1973 18.9375 24.3223 18.3438 22.9785 19.4375C22.2598 20 21.9785 20.7813 21.9785 21.7188C21.9785 23.9063 21.9785 26.0938 21.9785 28.2813C21.9785 28.5625 21.9473 28.8438 21.9785 29.1563C22.0098 29.4063 21.8848 29.4688 21.666 29.4375C20.3223 29.4375 19.0098 29.4375 17.666 29.4375C17.416 29.4375 17.3535 29.375 17.3535 29.125C17.3848 27.1563 17.3848 25.1875 17.3848 23.1875C17.3848 20.75 17.3848 18.3125 17.3535 15.9063C17.3535 15.625 17.416 15.5625 17.666 15.5625C19.0098 15.5625 20.3223 15.5625 21.666 15.5625C21.916 15.5625 21.9785 15.625 21.9785 15.875C21.9785 16.375 21.9785 16.875 21.9785 17.4688C22.0723 17.375 22.1035 17.3438 22.1348 17.3125C23.3535 15.5313 25.0723 15.0313 27.1035 15.3438C29.4473 15.7188 30.9473 17.3438 31.3223 19.8438C31.416 20.4375 31.4473 21.0313 31.4473 21.625C31.4473 24.125 31.4473 26.5938 31.4473 29.0938C31.4473 29.3438 31.3848 29.4375 31.1035 29.4375Z" fill="#010101"/>
<path d="M14.8535 22.5C14.8535 24.6875 14.8535 26.875 14.8535 29.0625C14.8535 29.3438 14.791 29.4375 14.5098 29.4375C13.1973 29.4063 11.8848 29.4375 10.5723 29.4375C10.3223 29.4375 10.2598 29.375 10.2598 29.125C10.2598 24.7188 10.2598 20.2813 10.2598 15.875C10.2598 15.6563 10.3223 15.5625 10.5723 15.5625C11.916 15.5625 13.2598 15.5625 14.6035 15.5625C14.8848 15.5625 14.916 15.6563 14.916 15.9063C14.8535 18.0938 14.8535 20.2813 14.8535 22.5Z" fill="#010101"/>
<path d="M15.0725 11.9375C14.76 13.1875 13.4788 13.9063 12.01 13.6563C10.4475 13.4063 9.57255 11.875 10.135 10.375C10.51 9.43752 11.4163 8.87502 12.5725 8.90627C14.3225 8.87502 15.4788 10.2813 15.0725 11.9375Z" fill="#010101"/>
</svg>
