<svg width="24" height="24" viewBox="0 0 24 24" fill="none" xmlns="http://www.w3.org/2000/svg">
<rect opacity="0.8" width="24" height="24" rx="12" fill="white"/>
<path d="M18.6624 17.6625C17.8749 17.6438 17.1061 17.6438 16.3186 17.6625C16.1499 17.6625 16.1124 17.625 16.1124 17.4563C16.1124 16.0688 16.1124 14.6625 16.1124 13.275C16.1124 12.9563 16.0936 12.6375 15.9999 12.3375C15.7186 11.3625 14.5936 11.0063 13.7874 11.6625C13.3561 12 13.1874 12.4688 13.1874 13.0313C13.1874 14.3438 13.1874 15.6563 13.1874 16.9688C13.1874 17.1375 13.1686 17.3063 13.1874 17.4938C13.2061 17.6438 13.1311 17.6813 12.9999 17.6625C12.1936 17.6625 11.4061 17.6625 10.5999 17.6625C10.4499 17.6625 10.4124 17.625 10.4124 17.475C10.4311 16.2938 10.4311 15.1125 10.4311 13.9125C10.4311 12.45 10.4311 10.9875 10.4124 9.54379C10.4124 9.37504 10.4499 9.33754 10.5999 9.33754C11.4061 9.33754 12.1936 9.33754 12.9999 9.33754C13.1499 9.33754 13.1874 9.37504 13.1874 9.52504C13.1874 9.82504 13.1874 10.125 13.1874 10.4813C13.2436 10.425 13.2624 10.4063 13.2811 10.3875C14.0124 9.31879 15.0436 9.01879 16.2624 9.20629C17.6686 9.43129 18.5686 10.4063 18.7936 11.9063C18.8499 12.2625 18.8686 12.6188 18.8686 12.975C18.8686 14.475 18.8686 15.9563 18.8686 17.4563C18.8686 17.6063 18.8311 17.6625 18.6624 17.6625Z" fill="#010101"/>
<path d="M8.9125 13.4999C8.9125 14.8124 8.9125 16.1249 8.9125 17.4374C8.9125 17.6062 8.875 17.6624 8.70625 17.6624C7.91875 17.6437 7.13125 17.6624 6.34375 17.6624C6.19375 17.6624 6.15625 17.6249 6.15625 17.4749C6.15625 14.8312 6.15625 12.1687 6.15625 9.5249C6.15625 9.39365 6.19375 9.3374 6.34375 9.3374C7.15 9.3374 7.95625 9.3374 8.7625 9.3374C8.93125 9.3374 8.95 9.39365 8.95 9.54365C8.9125 10.8562 8.9125 12.1687 8.9125 13.4999Z" fill="#010101"/>
<path d="M9.04372 7.16251C8.85622 7.91251 8.08747 8.34376 7.20622 8.19376C6.26872 8.04376 5.74372 7.12501 6.08122 6.22501C6.30622 5.66251 6.84997 5.32501 7.54372 5.34376C8.59372 5.32501 9.28747 6.16876 9.04372 7.16251Z" fill="#010101"/>
</svg>
