<svg width="24" height="24" viewBox="0 0 24 24" fill="none" xmlns="http://www.w3.org/2000/svg">
<rect width="24" height="24" rx="12" fill="none"/>
<path d="M18.6625 17.6623C17.875 17.6435 17.1062 17.6435 16.3187 17.6623C16.15 17.6623 16.1125 17.6248 16.1125 17.456C16.1125 16.0685 16.1125 14.6623 16.1125 13.2748C16.1125 12.956 16.0937 12.6373 16 12.3373C15.7187 11.3623 14.5937 11.006 13.7875 11.6623C13.3562 11.9998 13.1875 12.4685 13.1875 13.031C13.1875 14.3435 13.1875 15.656 13.1875 16.9685C13.1875 17.1373 13.1687 17.306 13.1875 17.4935C13.2062 17.6435 13.1312 17.681 13 17.6623C12.1937 17.6623 11.4062 17.6623 10.6 17.6623C10.45 17.6623 10.4125 17.6248 10.4125 17.4748C10.4312 16.2935 10.4312 15.1123 10.4312 13.9123C10.4312 12.4498 10.4312 10.9873 10.4125 9.54354C10.4125 9.37479 10.45 9.33729 10.6 9.33729C11.4062 9.33729 12.1937 9.33729 13 9.33729C13.15 9.33729 13.1875 9.37479 13.1875 9.52479C13.1875 9.82479 13.1875 10.1248 13.1875 10.481C13.2437 10.4248 13.2625 10.406 13.2812 10.3873C14.0125 9.31854 15.0437 9.01854 16.2625 9.20604C17.6687 9.43104 18.5687 10.406 18.7937 11.906C18.85 12.2623 18.8687 12.6185 18.8687 12.9748C18.8687 14.4748 18.8687 15.956 18.8687 17.456C18.8687 17.606 18.8312 17.6623 18.6625 17.6623Z" fill="white"/>
<path d="M8.9125 13.4999C8.9125 14.8124 8.9125 16.1249 8.9125 17.4374C8.9125 17.6062 8.875 17.6624 8.70625 17.6624C7.91875 17.6437 7.13125 17.6624 6.34375 17.6624C6.19375 17.6624 6.15625 17.6249 6.15625 17.4749C6.15625 14.8312 6.15625 12.1687 6.15625 9.5249C6.15625 9.39365 6.19375 9.3374 6.34375 9.3374C7.15 9.3374 7.95625 9.3374 8.7625 9.3374C8.93125 9.3374 8.95 9.39365 8.95 9.54365C8.9125 10.8562 8.9125 12.1687 8.9125 13.4999Z" fill="white"/>
<path d="M9.04372 7.16227C8.85622 7.91227 8.08747 8.34352 7.20622 8.19352C6.26872 8.04352 5.74372 7.12477 6.08122 6.22477C6.30622 5.66227 6.84997 5.32477 7.54372 5.34352C8.59372 5.32477 9.28747 6.16852 9.04372 7.16227Z" fill="white"/>
</svg>
