<svg width="48" height="40" viewBox="0 0 48 40" fill="none" xmlns="http://www.w3.org/2000/svg">
<path fill-rule="evenodd" clip-rule="evenodd" d="M3.88258 25.0774C3.88258 26.2873 3.88258 27.3894 3.88258 28.5222C3.88258 29.4392 3.90952 30.3563 3.86333 31.2734C3.81816 31.7524 3.59558 32.1971 3.23938 32.5201C2.88317 32.843 2.41912 33.021 1.93848 33.0188C1.46908 33.023 1.01437 32.8552 0.659883 32.5473C0.305392 32.2393 0.0755562 31.8123 0.0136126 31.3465C-0.00314688 31.072 -0.00443215 30.7967 0.00976324 30.522V8.6591C0.00976324 6.81729 0.702712 6.14298 2.60832 6.15454C5.13373 6.15454 7.663 6.11601 10.1846 6.25087C12.2362 6.37523 14.193 7.15899 15.764 8.48564C17.3351 9.8123 18.4363 11.611 18.9042 13.6143C20.0783 19.1012 16.294 24.2838 10.5849 24.9272C9.04504 25.0967 7.45896 25.039 5.89213 25.0736C5.26078 25.0929 4.62942 25.0774 3.88258 25.0774ZM4.00962 21.6712C5.81513 21.6712 7.586 21.6712 9.35689 21.6712C10.4384 21.687 11.4951 21.3457 12.3635 20.7002C13.343 20.0378 14.1073 19.1029 14.5623 18.0107C15.0171 16.9187 15.1428 15.7172 14.9236 14.5545C14.5463 12.0268 12.5213 9.85359 10.123 9.64937C8.11342 9.46827 6.07306 9.61469 4.00962 9.61469V21.6712Z" fill="#0379F7"/>
<path fill-rule="evenodd" clip-rule="evenodd" d="M16.3135 6.97538C16.9487 6.11997 17.6916 5.81943 18.5578 6.10456C18.9627 6.24536 19.3091 6.5174 19.542 6.87757C19.7749 7.23773 19.8811 7.6654 19.8436 8.0928C19.8436 9.20251 19.8436 10.3084 19.8436 11.5221C19.4526 10.5906 18.9344 9.71789 18.3038 8.92893C17.7221 8.19919 17.0537 7.54316 16.3135 6.97538Z" fill="#0379F7"/>
<path fill-rule="evenodd" clip-rule="evenodd" d="M33.5025 17.3906C34.0744 18.4521 34.4377 19.6136 34.5727 20.8122H39.662C40.2452 20.8252 40.82 20.9542 41.3529 21.1918C41.8858 21.4294 42.3662 21.7707 42.766 22.1959C43.1657 22.6212 43.477 23.1218 43.6816 23.6686C43.8861 24.2154 43.9798 24.7975 43.9573 25.381C43.9348 25.9645 43.7966 26.5376 43.5506 27.0671C43.3046 27.5965 42.9557 28.0716 42.5245 28.4648C42.0932 28.858 41.5879 29.1612 41.0384 29.3571C40.4887 29.5528 39.9057 29.6372 39.3232 29.6052H36.3204C35.8707 29.619 35.4436 29.8064 35.1286 30.1282C34.8137 30.4499 34.6352 30.8809 34.6304 31.3314C34.65 31.7806 34.8402 32.2054 35.1621 32.5191C35.4841 32.8328 35.9136 33.0117 36.3628 33.0191C39.354 33.0191 39.5119 33.019 40.9825 32.8842C42.3589 32.7149 43.6656 32.1821 44.7684 31.3404C45.871 30.4987 46.7301 29.3785 47.2575 28.0947C47.7939 26.9101 48.0053 25.6038 47.8699 24.3104C47.7346 23.0169 47.2574 21.7829 46.4875 20.7351C45.859 20.0263 45.1541 19.3893 44.3856 18.8356C45.4853 17.9067 46.3184 16.7019 46.7993 15.3445C48.166 11.0598 44.6935 6.31271 40.1047 6.23565C37.2982 6.18556 34.488 6.2318 31.6815 6.21253C30.1416 6.21253 29.3716 6.92537 29.3447 8.4204C29.3447 10.2738 29.3447 11.1176 29.3447 12.7205C29.3447 12.9749 29.3447 13.1059 29.3447 13.3679C30.8074 14.1463 32.0647 15.2608 33.0135 16.6199C33.0789 16.7125 33.1329 16.801 33.3446 17.144V9.61488C35.3311 9.61488 37.1096 9.61488 39.0075 9.61488C41.3674 9.638 42.9728 11.2294 42.9804 13.5336C42.9804 15.7144 41.3058 17.3636 39.0152 17.3867L33.5025 17.3906Z" fill="#E83725"/>
<path fill-rule="evenodd" clip-rule="evenodd" d="M33.0482 21.0972C32.5669 15.5178 26.1186 12.0384 21.01 14.516C20.9141 14.5714 20.8322 14.6482 20.7709 14.7404C20.7094 14.8326 20.6701 14.9378 20.6559 15.0477C20.7425 16.7817 20.4097 18.511 19.686 20.0887C18.9621 21.6664 17.8686 23.0461 16.4982 24.1104C16.2662 24.2815 16.109 24.5353 16.0593 24.8194V31.1232C16.0588 31.2526 16.0718 31.3817 16.0978 31.5085C16.0994 31.5161 16.0994 31.524 16.0978 31.5316C16.1238 31.6463 16.1599 31.7585 16.2056 31.8668C16.3281 32.1487 16.5172 32.3966 16.7567 32.5893C16.996 32.7818 17.2785 32.9134 17.5799 32.9727C17.7069 32.9968 17.8357 33.0084 17.9649 33.0073H17.9996C18.4309 33.0065 18.8486 32.8558 19.1814 32.5811C19.5142 32.3063 19.7414 31.9245 19.8243 31.5008C19.8489 31.3738 19.8618 31.2448 19.8628 31.1155C19.8628 29.5742 19.8628 27.9404 19.8628 26.4107V24.1374C19.8235 23.1319 19.8557 22.1251 19.9591 21.1242C20.3441 18.7853 22.7077 17.1631 25.0407 17.4059C26.2137 17.51 27.3071 18.0438 28.1112 18.9048C28.9153 19.7658 29.3738 20.8936 29.3985 22.0721C29.3985 25.0313 29.3985 28.1639 29.3985 31.1232C29.3985 31.6229 29.597 32.1021 29.95 32.4555C30.303 32.8088 30.7818 33.0073 31.2811 33.0073C31.7804 33.0073 32.2592 32.8088 32.6122 32.4555C32.9652 32.1021 33.1636 31.6229 33.1636 31.1232V28.3065C33.1713 26.0023 33.256 23.4862 33.0482 21.0972Z" fill="#0379F7"/>
</svg>
