<?xml version="1.0" encoding="UTF-8"?> <svg xmlns="http://www.w3.org/2000/svg" width="63" height="49" viewBox="0 0 63 49" fill="none"> <g clip-path="url(#clip0_2166_10)"> <path fill-rule="evenodd" clip-rule="evenodd" d="M5.20672 25.3368C5.20672 26.9436 5.20672 28.4072 5.20672 29.9119C5.20672 31.1297 5.24209 32.3478 5.18146 33.5658C5.12217 34.2019 4.83003 34.7925 4.36252 35.2215C3.895 35.6504 3.28593 35.8868 2.65509 35.8839C2.03901 35.8894 1.4422 35.6666 0.976936 35.2576C0.511667 34.8486 0.210008 34.2815 0.128707 33.6629C0.10671 33.2983 0.105023 32.9326 0.123654 32.5677V3.53114C0.123654 1.08497 1.03315 0.189412 3.53426 0.204765C6.84886 0.204765 10.1685 0.15359 13.4781 0.332702C16.1709 0.497864 18.7392 1.5388 20.8012 3.30076C22.8631 5.06272 24.3085 7.4516 24.9226 10.1122C26.4636 17.3995 21.4967 24.2826 14.0036 25.1373C11.9825 25.3624 9.90073 25.2856 7.84426 25.3316C7.01562 25.3572 6.18696 25.3368 5.20672 25.3368ZM5.37346 20.8129C7.7432 20.8129 10.0675 20.8129 12.3917 20.8129C13.8112 20.8338 15.1981 20.3805 16.3379 19.5233C17.6235 18.6435 18.6267 17.4018 19.2238 15.9513C19.8208 14.5009 19.9857 12.9051 19.698 11.3609C19.2028 8.00382 16.5451 5.11756 13.3973 4.84634C10.7597 4.60581 8.08174 4.80027 5.37346 4.80027V20.8129Z" fill="#0379F7"></path> <path fill-rule="evenodd" clip-rule="evenodd" d="M21.522 1.29494C22.3557 0.158852 23.3308 -0.240314 24.4677 0.138381C24.9991 0.325378 25.4537 0.686686 25.7594 1.16503C26.0651 1.64338 26.2045 2.21138 26.1553 2.77901C26.1553 4.25285 26.1553 5.72156 26.1553 7.33357C25.6421 6.09641 24.9619 4.93734 24.1343 3.8895C23.3708 2.92031 22.4935 2.04903 21.522 1.29494Z" fill="#0379F7"></path> <path fill-rule="evenodd" clip-rule="evenodd" d="M44.0825 15.1276C44.8332 16.5375 45.31 18.0801 45.4872 19.672H52.1669C52.9324 19.6892 53.6868 19.8606 54.3862 20.1761C55.0857 20.4916 55.7162 20.945 56.2409 21.5097C56.7655 22.0745 57.1741 22.7394 57.4426 23.4656C57.711 24.1919 57.8341 24.965 57.8045 25.7399C57.775 26.5149 57.5936 27.276 57.2707 27.9792C56.9479 28.6824 56.4899 29.3134 55.9239 29.8356C55.3578 30.3577 54.6947 30.7605 53.9734 31.0206C53.252 31.2806 52.4867 31.3926 51.7222 31.3501H47.7811C47.1908 31.3685 46.6303 31.6174 46.2169 32.0447C45.8035 32.472 45.5692 33.0445 45.5629 33.6427C45.5886 34.2394 45.8382 34.8036 46.2608 35.2202C46.6834 35.6369 47.2471 35.8744 47.8367 35.8842C51.7627 35.8842 51.9699 35.8841 53.9 35.7051C55.7065 35.4802 57.4216 34.7726 58.869 33.6547C60.3163 32.5369 61.4439 31.0491 62.136 29.344C62.84 27.7707 63.1174 26.0359 62.9398 24.318C62.7622 22.6001 62.1359 20.9611 61.1254 19.5696C60.3005 18.6282 59.3752 17.7821 58.3666 17.0467C59.8099 15.8131 60.9034 14.213 61.5346 12.4102C63.3284 6.71959 58.7708 0.414838 52.748 0.312488C49.0645 0.24596 45.376 0.30737 41.6925 0.281783C39.6714 0.281783 38.6608 1.22852 38.6255 3.21411C38.6255 5.67562 38.6255 6.79635 38.6255 8.92522C38.6255 9.26299 38.6255 9.43697 38.6255 9.78497C40.5453 10.8188 42.1955 12.299 43.4408 14.1041C43.5266 14.227 43.5974 14.3446 43.8754 14.8001V4.80053C46.4826 4.80053 48.8169 4.80053 51.3079 4.80053C54.4053 4.83124 56.5123 6.94476 56.5223 10.005C56.5223 12.9015 54.3244 15.0917 51.318 15.1225L44.0825 15.1276Z" fill="#E83725"></path> <path fill-rule="evenodd" clip-rule="evenodd" d="M43.4863 20.0505C42.8547 12.6404 34.3913 8.01929 27.6863 11.3098C27.5604 11.3834 27.4529 11.4854 27.3724 11.6079C27.2917 11.7304 27.2401 11.87 27.2214 12.016C27.3352 14.319 26.8984 16.6156 25.9485 18.7111C24.9984 20.8065 23.5631 22.6389 21.7645 24.0524C21.46 24.2796 21.2537 24.6168 21.1885 24.994V33.3662C21.1878 33.5381 21.2048 33.7096 21.239 33.878C21.2411 33.8881 21.2411 33.8986 21.239 33.9086C21.2731 34.061 21.3204 34.21 21.3805 34.3539C21.5413 34.7283 21.7895 35.0575 22.1037 35.3134C22.4179 35.5691 22.7887 35.7439 23.1842 35.8226C23.3509 35.8546 23.52 35.87 23.6896 35.8686H23.7351C24.3012 35.8675 24.8494 35.6674 25.2862 35.3025C25.723 34.9376 26.0212 34.4305 26.13 33.8677C26.1623 33.6991 26.1792 33.5277 26.1806 33.356C26.1806 31.309 26.1806 29.1391 26.1806 27.1075V24.0882C26.1289 22.7529 26.1712 21.4156 26.3069 20.0864C26.8122 16.98 29.9145 14.8255 32.9765 15.148C34.5161 15.2862 35.9511 15.9951 37.0066 17.1387C38.062 18.2823 38.6637 19.7801 38.6962 21.3452C38.6962 25.2755 38.6962 29.436 38.6962 33.3662C38.6962 34.0299 38.9566 34.6664 39.42 35.1358C39.8833 35.605 40.5117 35.8686 41.167 35.8686C41.8224 35.8686 42.4508 35.605 42.9141 35.1358C43.3775 34.6664 43.6379 34.0299 43.6379 33.3662V29.6254C43.6479 26.5651 43.7591 23.2234 43.4863 20.0505Z" fill="#0379F7"></path> <path d="M5.26209 41.7025C5.52107 41.9115 5.72653 42.1806 5.86111 42.487C5.99567 42.7935 6.05537 43.1282 6.03516 43.4629C6.05203 43.9291 5.9287 44.3896 5.68147 44.7832C5.43217 45.1504 5.08029 45.4337 4.67092 45.5969C4.23836 45.7772 3.77443 45.8677 3.30668 45.863H1.26536V48.5855C1.2659 48.6251 1.25806 48.6642 1.24237 48.7005C1.22668 48.7366 1.20351 48.769 1.17441 48.7954C1.14704 48.8245 1.11412 48.8476 1.07764 48.8635C1.04116 48.8792 1.00189 48.8875 0.962198 48.8875H0.502397C0.461861 48.8881 0.421622 48.8804 0.384224 48.8645C0.346826 48.8486 0.313083 48.8251 0.28513 48.7954C0.257685 48.768 0.235942 48.7352 0.221188 48.6992C0.206434 48.6632 0.198968 48.6245 0.199232 48.5855V41.421C0.198859 41.3812 0.206256 41.3417 0.220997 41.3049C0.235738 41.268 0.257533 41.2345 0.28513 41.2061C0.343474 41.1494 0.421509 41.1181 0.502397 41.1191H3.32689C4.01838 41.0876 4.70018 41.2931 5.26209 41.7025ZM3.27131 44.86C3.71598 44.891 4.15831 44.7722 4.52945 44.5222C4.67578 44.3976 4.79162 44.2404 4.86789 44.0627C4.94416 43.8852 4.97877 43.6921 4.96904 43.4987C4.96904 42.5912 4.40312 42.1392 3.27131 42.1426H1.2502V44.8959L3.27131 44.86Z" fill="#0379F7"></path> <path d="M12.0684 48.7956C12.0418 48.8257 12.009 48.8496 11.9724 48.8656C11.9357 48.8815 11.896 48.8891 11.8562 48.8877H11.4419C11.4022 48.8877 11.3629 48.8796 11.3264 48.8637C11.2899 48.848 11.257 48.8247 11.2296 48.7956C11.2005 48.7694 11.1774 48.737 11.1617 48.7007C11.146 48.6645 11.1381 48.6254 11.1387 48.5859V45.6535C11.157 45.4255 11.1307 45.196 11.0614 44.9781C10.992 44.7604 10.8809 44.5586 10.7345 44.3844C10.5825 44.2337 10.401 44.1171 10.2016 44.0422C10.0023 43.9672 9.78959 43.9356 9.57739 43.9494C9.36602 43.9364 9.15429 43.9684 8.95588 44.0432C8.75745 44.1182 8.57673 44.2344 8.42536 44.3844C8.27644 44.5576 8.16273 44.7589 8.09076 44.9766C8.01881 45.1944 7.98999 45.4244 8.00599 45.6535V48.5859C8.00652 48.6254 7.99869 48.6645 7.98298 48.7007C7.9673 48.737 7.94412 48.7694 7.91503 48.7956C7.88804 48.8252 7.85519 48.8487 7.81862 48.8646C7.78205 48.8805 7.7426 48.8884 7.70282 48.8877H7.28849C7.2488 48.8877 7.20953 48.8796 7.17305 48.8637C7.13657 48.848 7.10364 48.8247 7.07628 48.7956C7.04718 48.7694 7.024 48.737 7.00831 48.7007C6.99263 48.6645 6.98478 48.6254 6.98532 48.5859V41.2934C6.98478 41.2539 6.99263 41.2147 7.00831 41.1785C7.024 41.1424 7.04718 41.11 7.07628 41.0836C7.10364 41.0545 7.13657 41.0314 7.17305 41.0155C7.20953 40.9996 7.2488 40.9915 7.28849 40.9915H7.70282C7.7426 40.9909 7.78205 40.9987 7.81862 41.0146C7.85519 41.0305 7.88804 41.054 7.91503 41.0836C7.94412 41.11 7.9673 41.1424 7.98298 41.1785C7.99869 41.2147 8.00652 41.2539 8.00599 41.2934V43.7499C8.19305 43.5301 8.42605 43.3552 8.6881 43.2381C9.00943 43.074 9.36409 42.9882 9.72392 42.9872C10.1617 42.9791 10.5944 43.083 10.9821 43.2892C11.3451 43.4847 11.6437 43.7836 11.841 44.149C12.0551 44.5582 12.1612 45.0165 12.1492 45.4795V48.5807C12.1518 48.6204 12.1459 48.66 12.1319 48.6971C12.118 48.7342 12.0963 48.7679 12.0684 48.7956Z" fill="#0379F7"></path> <path d="M16.9749 45.2284V45.085C16.9828 44.9261 16.954 44.7676 16.8909 44.6219C16.8277 44.4763 16.7319 44.3474 16.6111 44.2458C16.3384 44.0374 16.0023 43.9324 15.6611 43.949C15.4184 43.9376 15.1768 43.9888 14.9587 44.0974C14.7718 44.2154 14.6104 44.3703 14.4838 44.5529C14.4454 44.6038 14.395 44.6441 14.3373 44.6705C14.2699 44.6978 14.1976 44.71 14.125 44.7064H13.7663C13.7259 44.7065 13.6858 44.6984 13.6485 44.6825C13.6112 44.6668 13.5773 44.6435 13.549 44.6143C13.5188 44.5891 13.495 44.5569 13.4801 44.5203C13.4651 44.4836 13.4593 44.4439 13.4632 44.4044C13.5008 44.1536 13.6178 43.922 13.7967 43.7443C14.0193 43.5175 14.2883 43.3428 14.5848 43.2325C14.9225 43.075 15.2893 42.9914 15.6611 42.9869C16.2753 42.9589 16.8775 43.1653 17.3488 43.5651C17.5689 43.7709 17.7411 44.0236 17.8529 44.3051C17.9648 44.5866 18.0135 44.8896 17.9955 45.1925V48.5803C17.996 48.6199 17.9882 48.659 17.9725 48.6953C17.9568 48.7314 17.9336 48.7638 17.9046 48.7902C17.8771 48.8193 17.8443 48.8424 17.8077 48.8583C17.7713 48.8742 17.732 48.8823 17.6923 48.8823H17.3032C17.2636 48.8823 17.2243 48.8742 17.1878 48.8583C17.1514 48.8424 17.1184 48.8193 17.091 48.7902C17.062 48.7638 17.0387 48.7314 17.023 48.6953C17.0074 48.659 16.9996 48.6199 17.0001 48.5803V48.1249C16.8378 48.4295 16.5638 48.6574 16.2371 48.7594C15.8667 48.9135 15.4704 48.9934 15.0699 48.9949C14.7221 48.9993 14.3774 48.9278 14.0593 48.785C13.7819 48.6679 13.5422 48.4748 13.3672 48.2273C13.2065 47.9912 13.1219 47.7105 13.1246 47.4238C13.1153 47.1704 13.1681 46.9185 13.2782 46.6908C13.3886 46.4631 13.5527 46.2665 13.7562 46.1188C14.2544 45.7718 14.8283 45.5523 15.4286 45.4791L16.9749 45.2284ZM16.9749 46.1188L15.651 46.3286C15.254 46.374 14.8696 46.4975 14.5192 46.692C14.4009 46.7488 14.3005 46.8376 14.2292 46.9488C14.1578 47.0599 14.1182 47.1889 14.1149 47.3214C14.1159 47.4211 14.1397 47.5191 14.1845 47.608C14.2292 47.6968 14.2935 47.7739 14.3726 47.8331C14.599 48.0001 14.8766 48.08 15.1558 48.0584C15.6347 48.0789 16.1036 47.9163 16.4695 47.6029C16.6347 47.4535 16.7654 47.2694 16.8527 47.0634C16.9399 46.8574 16.9817 46.6345 16.9749 46.4105V46.1188Z" fill="#0379F7"></path> <path d="M22.4164 43.1918C22.4452 43.2195 22.4681 43.2529 22.4838 43.2898C22.4993 43.3268 22.5075 43.3665 22.5075 43.4068V43.7598C22.508 43.7994 22.5001 43.8385 22.4844 43.8748C22.4687 43.9109 22.4456 43.9433 22.4164 43.9697C22.3891 43.9988 22.3562 44.0219 22.3197 44.0378C22.2833 44.0537 22.244 44.0618 22.2042 44.0618H21.5525C21.379 44.0493 21.2049 44.0718 21.0401 44.128C20.8752 44.1843 20.7231 44.273 20.5924 44.3893C20.4764 44.5168 20.3873 44.667 20.3309 44.8308C20.2744 44.9945 20.2516 45.1682 20.2639 45.3412V48.5857C20.2646 48.6252 20.2567 48.6644 20.241 48.7005C20.2253 48.7368 20.2022 48.7692 20.173 48.7954C20.1457 48.8246 20.1127 48.8478 20.0763 48.8635C20.0399 48.8794 20.0006 48.8876 19.9608 48.8876H19.5414C19.5018 48.8876 19.4625 48.8794 19.426 48.8635C19.3895 48.8478 19.3566 48.8246 19.3292 48.7954C19.3002 48.7692 19.2769 48.7368 19.2612 48.7005C19.2456 48.6644 19.2378 48.6252 19.2383 48.5857V43.4068C19.2377 43.3669 19.2449 43.3274 19.2596 43.2904C19.2745 43.2535 19.2963 43.2199 19.3241 43.1918C19.3813 43.1363 19.4573 43.1052 19.5363 43.1048H19.9557C20.0349 43.1052 20.1109 43.1363 20.168 43.1918C20.1967 43.2195 20.2196 43.2529 20.2353 43.2898C20.2508 43.3268 20.259 43.3665 20.259 43.4068V43.7497C20.3904 43.5348 20.5751 43.3584 20.7945 43.2379C21.0529 43.1264 21.3325 43.0739 21.6131 43.0843H22.2042C22.2449 43.0872 22.2845 43.0982 22.321 43.1165C22.3574 43.135 22.3899 43.1605 22.4164 43.1918Z" fill="#0379F7"></path> <path d="M24.8267 43.1969C25.1036 43.05 25.4137 42.9795 25.7262 42.9922C26.0919 42.9584 26.4595 43.0315 26.7855 43.2029C27.1115 43.3744 27.3822 43.6369 27.5653 43.9594C27.7603 43.6702 28.0134 43.4261 28.308 43.243C28.6413 43.0616 29.0162 42.9732 29.3944 42.9871C29.6984 42.9641 30.0036 43.0112 30.2871 43.1246C30.5706 43.2381 30.8251 43.415 31.0315 43.6421C31.4062 44.1839 31.5847 44.8401 31.5367 45.4997V48.5703C31.5374 48.6098 31.5294 48.649 31.5138 48.6851C31.4981 48.7214 31.475 48.7538 31.4458 48.7801C31.4184 48.8093 31.3855 48.8324 31.3491 48.8483C31.3125 48.864 31.2732 48.8723 31.2336 48.8723H30.8446C30.8048 48.8723 30.7655 48.864 30.7291 48.8483C30.6927 48.8324 30.6597 48.8093 30.6324 48.7801C30.6032 48.7538 30.58 48.7214 30.5643 48.6851C30.5486 48.649 30.5408 48.6098 30.5413 48.5703V45.6021C30.5413 44.4916 30.0968 43.9339 29.2176 43.9339C29.0377 43.9252 28.8582 43.9566 28.6915 44.0255C28.5248 44.0945 28.375 44.1994 28.2525 44.333C27.9907 44.6786 27.8696 45.1126 27.914 45.5459V48.6164C27.9145 48.6559 27.9067 48.695 27.891 48.7313C27.8753 48.7674 27.8521 48.7998 27.8229 48.8261C27.7956 48.8553 27.7627 48.8784 27.7262 48.8943C27.6898 48.9101 27.6505 48.9183 27.6107 48.9183H27.1964C27.1559 48.919 27.1156 48.9111 27.0783 48.8953C27.0409 48.8794 27.0072 48.8559 26.9792 48.8261C26.9517 48.7988 26.9299 48.7661 26.9152 48.73C26.9004 48.694 26.893 48.6554 26.8933 48.6164V45.6482C26.8933 44.5377 26.4487 43.9799 25.5695 43.9799C25.3897 43.9714 25.21 44.0026 25.0434 44.0716C24.8768 44.1405 24.7269 44.2455 24.6044 44.379C24.3374 44.706 24.2006 45.122 24.2203 45.5459V48.6164C24.2219 48.6555 24.215 48.6946 24.2002 48.7308C24.1854 48.767 24.1629 48.7995 24.1345 48.8261C24.1071 48.8553 24.0742 48.8784 24.0378 48.8943C24.0012 48.9101 23.9619 48.9183 23.9223 48.9183H23.5029C23.4632 48.9183 23.4239 48.9101 23.3875 48.8943C23.3509 48.8784 23.3181 48.8553 23.2906 48.8261C23.2616 48.7998 23.2384 48.7674 23.2227 48.7313C23.207 48.695 23.1992 48.6559 23.1997 48.6164V43.4067C23.1997 43.3665 23.2078 43.3267 23.2234 43.2897C23.239 43.2529 23.262 43.2195 23.2906 43.1917C23.3477 43.1362 23.4237 43.1051 23.5029 43.1047H23.9223C24.0014 43.1051 24.0774 43.1362 24.1345 43.1917C24.1625 43.2197 24.1846 43.2532 24.1995 43.2902C24.2142 43.3272 24.2213 43.3669 24.2203 43.4067V43.7496C24.3893 43.5311 24.5945 43.3441 24.8267 43.1969Z" fill="#0379F7"></path> <path d="M32.7491 41.406C32.7484 41.3657 32.7562 41.3257 32.7719 41.2887C32.7875 41.2517 32.8107 41.2185 32.84 41.1911C32.897 41.1356 32.973 41.1045 33.0522 41.1041H36.0839C36.5828 41.0872 37.0769 41.2075 37.5137 41.4521C37.8461 41.6443 38.1177 41.9283 38.2969 42.2708C38.4418 42.5561 38.5195 42.8713 38.5243 43.192C38.5445 43.5586 38.4372 43.9207 38.2212 44.2155C38.0571 44.4376 37.8552 44.6282 37.6249 44.7785C37.9334 44.9742 38.1955 45.2364 38.393 45.5461C38.5892 45.869 38.6908 46.2416 38.686 46.6207C38.685 47.0042 38.5877 47.3811 38.403 47.7159C38.2014 48.0691 37.9078 48.3595 37.5542 48.5551C37.1451 48.779 36.6851 48.8901 36.2202 48.8776H33.0522C33.0125 48.8776 32.9733 48.8694 32.9367 48.8536C32.9003 48.8377 32.8673 48.8146 32.84 48.7855C32.8108 48.7591 32.7877 48.7267 32.772 48.6905C32.7563 48.6544 32.7484 48.6151 32.7491 48.5756V41.406ZM33.8202 44.3486H35.9524C36.347 44.3762 36.7398 44.2758 37.0742 44.062C37.1928 43.9587 37.2879 43.8307 37.3531 43.6867C37.4184 43.5427 37.4521 43.3862 37.4521 43.2278C37.4521 43.0695 37.4184 42.913 37.3531 42.769C37.2879 42.625 37.1928 42.497 37.0742 42.3937C36.7398 42.1798 36.347 42.0793 35.9524 42.1071H33.8202V44.3486ZM33.8202 47.8847H36.104C36.5074 47.9113 36.906 47.7836 37.2207 47.5266C37.3483 47.4164 37.4503 47.2789 37.5194 47.1241C37.5883 46.9692 37.6227 46.8008 37.6198 46.631C37.6234 46.46 37.5917 46.2901 37.5263 46.1322C37.4611 45.9745 37.3639 45.8323 37.241 45.715C36.9215 45.4516 36.5149 45.3216 36.104 45.3516H33.8202V47.8847Z" fill="#E83725"></path> <path d="M44.7903 46.0066C44.7903 46.1857 44.7903 46.3546 44.7903 46.5183C44.7596 47.2001 44.4764 47.8452 43.997 48.3248C43.4703 48.7617 42.8107 49.0006 42.1299 49.0006C41.4493 49.0006 40.7895 48.7617 40.2629 48.3248C39.7877 47.8423 39.5051 47.1989 39.4697 46.5183C39.4697 46.4364 39.4697 46.2676 39.4697 46.0066C39.4697 45.7456 39.4697 45.5562 39.4697 45.4948C39.4964 44.8132 39.7783 44.1673 40.258 43.6883C40.7864 43.2514 41.4478 43.0129 42.1299 43.0129C42.8122 43.0129 43.4734 43.2514 44.002 43.6883C44.4817 44.1673 44.7635 44.8132 44.7903 45.4948C44.7852 45.6381 44.7903 45.8172 44.7903 46.0066ZM43.2744 44.3843C42.9518 44.1033 42.5403 43.9488 42.1149 43.9488C41.6893 43.9488 41.2778 44.1033 40.9552 44.3843C40.6605 44.6954 40.4819 45.1007 40.4499 45.5307C40.4499 45.6177 40.4499 45.7763 40.4499 46.0066C40.4499 46.2368 40.4499 46.3802 40.4499 46.4621C40.4819 46.8919 40.6605 47.2972 40.9552 47.6083C41.2778 47.8893 41.6893 48.0438 42.1149 48.0438C42.5403 48.0438 42.9518 47.8893 43.2744 47.6083C43.5713 47.2987 43.7503 46.8926 43.7797 46.4621C43.7797 46.2983 43.7797 46.1498 43.7797 46.0066C43.7797 45.8633 43.7797 45.7046 43.7797 45.5307C43.7489 45.0994 43.5681 44.6932 43.2694 44.3843H43.2744Z" fill="#E83725"></path> <path d="M50.7269 48.7953C50.6996 48.8244 50.6666 48.8477 50.6302 48.8634C50.5937 48.8793 50.5544 48.8874 50.5147 48.8874H50.1004C50.0606 48.8888 50.0208 48.8812 49.9842 48.8653C49.9475 48.8493 49.9147 48.8254 49.8881 48.7953C49.8591 48.7691 49.8359 48.7367 49.8202 48.7004C49.8045 48.6642 49.7967 48.6251 49.7972 48.5856V45.6532C49.8141 45.4244 49.7863 45.1946 49.7152 44.9767C49.644 44.7589 49.5311 44.5576 49.3829 44.3841C49.0618 44.1038 48.6521 43.9497 48.2284 43.9497C47.8046 43.9497 47.3948 44.1038 47.0738 44.3841C46.9249 44.5573 46.8111 44.7586 46.7392 44.9763C46.6672 45.1941 46.6384 45.4241 46.6544 45.6532V48.5856C46.655 48.6251 46.6471 48.6642 46.6314 48.7004C46.6157 48.7367 46.5926 48.7691 46.5635 48.7953C46.536 48.8244 46.5032 48.8477 46.4667 48.8634C46.4302 48.8793 46.3909 48.8874 46.3512 48.8874H45.9369C45.8973 48.8874 45.858 48.8793 45.8214 48.8634C45.785 48.8477 45.7521 48.8244 45.7247 48.7953C45.6955 48.7691 45.6724 48.7367 45.6568 48.7004C45.6411 48.6642 45.6332 48.6251 45.6338 48.5856V43.4067C45.6338 43.3664 45.6418 43.3267 45.6575 43.2897C45.6731 43.2528 45.6959 43.2194 45.7247 43.1917C45.7818 43.1362 45.8577 43.1051 45.9369 43.1047H46.3512C46.4304 43.1051 46.5064 43.1362 46.5635 43.1917C46.5922 43.2194 46.6151 43.2528 46.6307 43.2897C46.6463 43.3267 46.6544 43.3664 46.6544 43.4067V43.7496C46.8404 43.5286 47.0736 43.3536 47.3365 43.2378C47.6635 43.0694 48.0258 42.9834 48.3926 42.9869C48.8273 42.9828 49.2562 43.0883 49.6406 43.2941C50.0025 43.4911 50.3008 43.7896 50.4996 44.1538C50.7136 44.5631 50.8198 45.0213 50.8078 45.4843V48.5856C50.8095 48.6243 50.8034 48.6631 50.7894 48.6992C50.7754 48.7353 50.7542 48.7681 50.7269 48.7953Z" fill="#E83725"></path> <path d="M51.9142 43.1918C51.9726 43.135 52.0507 43.1038 52.1315 43.1048H52.5458C52.625 43.1051 52.7009 43.1363 52.758 43.1918C52.7868 43.2195 52.8096 43.2529 52.8253 43.2898C52.8409 43.3268 52.8491 43.3665 52.8491 43.4066V46.339C52.8164 46.7981 52.9553 47.2529 53.238 47.6133C53.547 47.8916 53.9462 48.0455 54.3598 48.0455C54.7734 48.0455 55.1725 47.8916 55.4815 47.6133C55.7693 47.2571 55.9121 46.8033 55.8807 46.3441V43.4066C55.8797 43.3669 55.8869 43.3271 55.9016 43.2903C55.9164 43.2533 55.9385 43.2198 55.9666 43.1918C56.0236 43.1363 56.0996 43.1051 56.1788 43.1048H56.5982C56.6772 43.1051 56.7533 43.1363 56.8104 43.1918C56.8391 43.2195 56.862 43.2529 56.8776 43.2898C56.8933 43.3268 56.9013 43.3665 56.9013 43.4066V48.5856C56.9018 48.6251 56.894 48.6643 56.8783 48.7005C56.8627 48.7368 56.8394 48.769 56.8104 48.7954C56.783 48.8245 56.7501 48.8476 56.7136 48.8635C56.6771 48.8794 56.6378 48.8875 56.5982 48.8875H56.1788C56.1391 48.8875 56.0999 48.8794 56.0633 48.8635C56.0269 48.8476 55.9939 48.8245 55.9666 48.7954C55.9382 48.7688 55.9157 48.7363 55.9009 48.7C55.886 48.6639 55.8791 48.6248 55.8807 48.5856V48.2428C55.6785 48.4964 55.4193 48.6974 55.125 48.8291C54.8305 48.9609 54.5093 49.0195 54.188 49.0001C53.8708 49.0144 53.5539 48.9623 53.2574 48.8469C52.961 48.7315 52.6912 48.5555 52.465 48.3298C52.2433 48.0849 52.0723 47.7975 51.9621 47.4846C51.8519 47.1716 51.8047 46.8396 51.8233 46.5079V43.4066C51.825 43.3259 51.8576 43.2488 51.9142 43.1918Z" fill="#E83725"></path> <path d="M58.0686 44.6604C58.066 44.3633 58.1522 44.0725 58.3162 43.8261C58.4983 43.558 58.7526 43.3484 59.0488 43.2223C59.4279 43.0559 59.8384 42.9755 60.2514 42.9869C60.6594 42.977 61.0656 43.0448 61.4489 43.1865C61.7414 43.293 62.0046 43.4684 62.217 43.6983C62.3734 43.8512 62.4686 44.057 62.4847 44.2765C62.4848 44.3138 62.4766 44.3505 62.461 44.3842C62.4451 44.4178 62.4223 44.4474 62.3938 44.471C62.3367 44.5265 62.2607 44.5576 62.1815 44.558H61.8076C61.7437 44.5598 61.6803 44.5464 61.6223 44.5188C61.5644 44.4913 61.5136 44.4504 61.4742 44.3994C61.3172 44.2359 61.1255 44.1108 60.9136 44.0336C60.7017 43.9564 60.4752 43.9293 60.2514 43.9541C59.9602 43.9405 59.6706 44.0059 59.4126 44.1435C59.3185 44.1911 59.2391 44.264 59.1829 44.3543C59.1268 44.4445 59.0961 44.5487 59.0943 44.6553C59.0884 44.7333 59.0992 44.8118 59.1263 44.8851C59.1533 44.9585 59.1958 45.025 59.2509 45.08C59.3878 45.1928 59.5486 45.2716 59.7208 45.3103C59.933 45.3716 60.3019 45.4587 60.8325 45.5815C61.3526 45.6534 61.8408 45.8775 62.2371 46.2263C62.3718 46.3654 62.4778 46.5303 62.5489 46.7113C62.6201 46.8923 62.6549 47.0858 62.6514 47.2805C62.6508 47.5865 62.5495 47.8836 62.3635 48.1249C62.1487 48.4026 61.8668 48.6195 61.5449 48.7544C61.1535 48.9215 60.7317 49.0034 60.307 48.9949C59.8875 49.004 59.4702 48.9293 59.0792 48.7748C58.7706 48.6649 58.4882 48.4905 58.2506 48.263C58.0848 48.1107 57.9819 47.9004 57.9625 47.6745C57.9615 47.6376 57.9687 47.601 57.9835 47.5674C57.9985 47.5338 58.0206 47.5039 58.0484 47.48C58.1056 47.4245 58.1815 47.3934 58.2606 47.3931H58.6649C58.7252 47.3841 58.7865 47.3841 58.8467 47.3931C58.9078 47.4164 58.9593 47.4596 58.9932 47.5159C59.1551 47.7024 59.3591 47.8464 59.5879 47.9355C59.8167 48.0246 60.0635 48.0563 60.307 48.0276C60.6286 48.035 60.9469 47.9593 61.2316 47.8077C61.338 47.7674 61.4315 47.6984 61.5017 47.6081C61.5722 47.5179 61.6168 47.4099 61.6308 47.2959C61.6347 47.2134 61.6187 47.1313 61.5844 47.0564C61.55 46.9815 61.4984 46.9163 61.4338 46.866C61.2642 46.7404 61.0719 46.65 60.8678 46.5999C60.6202 46.5334 60.2362 46.4413 59.7108 46.3286C58.616 46.0933 58.0686 45.5371 58.0686 44.6604Z" fill="#E83725"></path> </g> <defs> <clipPath id="clip0_2166_10"> <rect width="63" height="49" fill="white"></rect> </clipPath> </defs> </svg> 