<?xml version="1.0" encoding="utf-8"?><svg viewBox="0 0 1600 1600" xmlns="http://www.w3.org/2000/svg" xmlns:xlink="http://www.w3.org/1999/xlink"><style>:root>svg{display:none}:root>svg:target{display:block}</style><svg fill="none" viewBox="0 0 24 24" id="apple" xmlns="http://www.w3.org/2000/svg"><path d="M19.665 16.811a10.315 10.315 0 01-1.02 1.837c-.538.767-.979 1.297-1.317 1.592-.525.482-1.089.73-1.692.744-.432 0-.954-.123-1.562-.373-.61-.249-1.17-.371-1.683-.371-.537 0-1.113.122-1.73.371-.616.25-1.114.381-1.495.393-.577.025-1.154-.229-1.729-.764-.367-.32-.826-.87-1.377-1.648-.59-.829-1.075-1.794-1.455-2.891-.407-1.187-.61-2.335-.61-3.447 0-1.273.274-2.372.825-3.292a4.857 4.857 0 011.73-1.751 4.65 4.65 0 012.34-.662c.46 0 1.063.142 1.81.422.747.28 1.227.422 1.436.422.158 0 .69-.167 1.593-.498.853-.307 1.573-.434 2.163-.384 1.6.129 2.801.759 3.6 1.895-1.43.867-2.137 2.08-2.123 3.637.012 1.213.453 2.222 1.317 3.023.382.366.828.658 1.315.863-.106.307-.218.6-.336.882zM15.998 2.38c0 .95-.348 1.838-1.039 2.659-.836.976-1.846 1.541-2.94 1.452a2.967 2.967 0 01-.022-.36c0-.913.396-1.889 1.103-2.688.352-.404.8-.741 1.343-1.009.542-.264 1.054-.41 1.536-.435.013.128.02.255.02.381z" fill="currentColor"/></svg><svg version="1.0" viewBox="0 0 512 512" id="arrow-down" xmlns="http://www.w3.org/2000/svg"><path d="M59.6 156.6c-.9.8-1.6 2.1-1.6 2.7C58 161.1 254.3 357 256 357c1.8 0 198-195.9 198-197.7 0-.6-.7-1.9-1.6-2.7-1.4-1.4-20.6-1.6-196.4-1.6s-195 .2-196.4 1.6z"/></svg><svg version="1.0" viewBox="0 0 900 900" id="check2" xmlns="http://www.w3.org/2000/svg"><g fill="currentColor"><path d="M418 1.1c-28.4 2.2-52.3 6.2-79.5 13.1C231.3 41.3 136.9 108.3 75.3 201a449.211 449.211 0 00-61.7 358.5c19.8 78.9 60.7 151 118.3 208.5 71.6 71.4 163 116.1 262.6 128.5 55.7 6.9 110.5 3.5 165-10.1 136.6-34 250.8-132.1 305.4-262.1 37.4-89.1 45.1-189.8 21.5-283.8-27.3-109.2-95.4-205-189.7-266.8C622.7 25.1 535.8-.5 447.6.1c-10.5.1-23.8.6-29.6 1zM474.5 39c47.1 2.9 90.8 12.9 133.5 30.7 91.4 38.1 166.5 108.2 210.7 196.8 57.6 115.2 57.4 252.5-.3 367.8-53.7 107.1-154.1 187.5-268.9 215.2-36.8 8.9-61.3 11.8-99.5 11.8-47.5 0-86.5-6.2-130.1-20.6C186.8 796.6 83.4 684.9 50.5 549.5c-8.8-36.1-11.8-61.3-11.8-99.5 0-38.3 2.9-63.2 11.8-99.7C78.2 236.2 157.5 136.8 264 82.5 308.9 59.7 364.5 43.8 412.5 40c28.2-2.2 39.2-2.3 62-1z"/><path d="M710 263.7c-11.8 11.4-41.7 40-66.5 63.7-24.7 23.6-49.7 47.6-55.5 53.1-5.8 5.6-31.6 30.4-57.5 55.1-25.8 24.7-67.5 64.5-92.5 88.4-25 24-53.8 51.6-64 61.3-10.2 9.7-19 17.6-19.7 17.5-.7-.2-32.8-33.8-71.3-74.8-38.6-41-71-75.3-71.9-76.3-1.6-1.7-2.4-1.1-16.1 12-8 7.5-14.5 14-14.5 14.4 0 .4 14.6 16.2 32.5 35C321.7 627.9 353.2 661 353.7 661c.4 0 5.2-4.4 10.7-9.8 14.8-14.3 50-48.1 134.1-128.8C701.8 327.6 759 272.5 759 271.9c0-.9-26.2-28.9-27-28.9-.3.1-10.2 9.4-22 20.7z"/></g></svg><svg version="1.0" viewBox="0 0 1200 1200" id="close" xmlns="http://www.w3.org/2000/svg"><path d="M299.2 299.3C280.4 318.1 265 334 265 334.5c0 .6 59.5 60.5 132.2 133.2L529.5 600 397 732.5 264.5 865l35.3 35.2 35.2 35.3L467.5 803 600 670.5 732.5 803 865 935.5l35.2-35.3 35.3-35.2L803 732.5 670.5 600l132.3-132.3C875.5 395 935 335 935 334.5c0-1.3-68.2-69.5-69.5-69.5-.6 0-60.5 59.5-133.2 132.2L600 529.5 467.7 397.2C395 324.5 335 265 334.5 265c-.6 0-16.4 15.4-35.3 34.3z" fill="currentColor"/></svg><svg fill="none" viewBox="0 0 24 24" id="facebook" xmlns="http://www.w3.org/2000/svg"><path d="M12.001 2.002c-5.522 0-10 4.477-10 9.999.001 4.99 3.657 9.126 8.438 9.879v-6.988h-2.54v-2.891h2.54V9.798c0-2.508 1.493-3.891 3.776-3.891 1.094 0 2.24.195 2.24.195V8.56h-1.264c-1.24 0-1.628.772-1.628 1.563v1.875h2.771l-.443 2.891h-2.328v6.988C18.344 21.129 22 16.992 22 12.001c0-5.522-4.477-10-9.999-10z" fill="#516176"/></svg><svg fill="currentColor" viewBox="0 0 612 792" id="fb" xmlns="http://www.w3.org/2000/svg"><path d="M341.308 622.436c-2.018.081-3.31.242-4.601.242-27.607 0-55.133-.081-82.74.081-3.875 0-4.924-1.049-4.924-4.924.081-64.255.081-128.59.081-192.845v-5.57h-44.478v-68.614h4.359c12.108 0 24.217-.081 36.325.081 3.067 0 3.875-.888 3.875-3.875a3028.093 3028.093 0 010-54.084c.081-12.593 2.099-24.862 7.911-36.244 8.314-16.064 21.472-26.477 38.101-32.935 13.561-5.328 27.849-7.265 42.218-7.507 23.409-.323 46.819-.161 70.228-.242 2.18 0 3.955-.081 3.955 2.987-.081 22.199-.081 44.397-.081 66.596 0 .242-.081.484-.404 1.534h-4.44c-14.53 0-29.06-.081-43.59 0-8.395 0-15.176 3.39-19.454 10.736-1.292 2.179-2.099 5.005-2.099 7.588-.242 13.723 0 27.446-.161 41.168 0 3.229.969 4.117 4.117 4.117 20.181-.161 40.361-.081 60.542-.081h5.893c-2.825 23.086-5.57 45.689-8.395 68.533h-62.237l-.001 203.258z"/></svg><svg fill="none" viewBox="0 0 24 24" id="fb2" xmlns="http://www.w3.org/2000/svg"><path d="M12.001 2.002c-5.522 0-10 4.477-10 9.999.001 4.99 3.657 9.126 8.438 9.879v-6.988h-2.54v-2.891h2.54V9.798c0-2.508 1.493-3.891 3.776-3.891 1.094 0 2.24.195 2.24.195V8.56h-1.264c-1.24 0-1.628.772-1.628 1.563v1.875h2.771l-.443 2.891h-2.328v6.988C18.344 21.129 22 16.992 22 12.001c0-5.522-4.477-10-9.999-10z" fill="#516176"/></svg><svg fill="none" viewBox="0 0 24 24" id="google" xmlns="http://www.w3.org/2000/svg"><path d="M12.954 11.616l2.957-2.957L6.36 3.291c-.633-.342-1.226-.39-1.746-.016l8.34 8.341zm3.461 3.462l3.074-1.729c.6-.336.929-.812.929-1.34 0-.527-.329-1.004-.928-1.34l-2.783-1.563-3.133 3.132 2.841 2.84zM4.1 4.002c-.064.197-.1.417-.1.658v14.705c0 .381.084.709.236.97l8.097-8.098L4.1 4.002zm8.854 8.855L4.902 20.91c.154.059.32.09.495.09.312 0 .637-.092.968-.276l9.255-5.197-2.666-2.67z" fill="currentColor"/></svg><svg fill="none" viewBox="0 0 402 565" id="img-s4" xmlns="http://www.w3.org/2000/svg"><g clip-path="url(#iclip0_2145_10)"><rect x="139.473" y="342.909" width="222.091" height="222.091" rx="111.046" fill="#FFC24B"/><path d="M361.454 527.578V473.72l-67.738 2.221-94.944 18.323v13.881l162.682 19.433z" fill="#A8601F"/><path d="M287.001 500l-4.567-99.95 7.97 4.462 2.805 92.914-6.208 2.574zm17.229-4.132l17.727-104.527 8.09-3.126-19.114 106.479-6.703 1.174z" fill="#E78327"/><path d="M227.644 586.987l-27.119-84.607c-1.378-4.3 1.83-8.696 6.345-8.696h99.454l32.576-6.677-5.847 91.802-26.729 8.178h-78.68z" fill="#FFA149"/><path d="M306.754 493.684l8.06 83.864 47.75-2.776 5.77-91.802-61.58 10.714z" fill="#E78327"/><path d="M320.502 517.396l-13.748-24.099 56.365-15.135 14.436 27.206-49.316 15.097a6.663 6.663 0 01-7.737-3.069z" fill="#FFDBB9"/><path d="M189.825 514.398l6.06-16.592a6.663 6.663 0 016.258-4.377h104.751l-8.686 25.409a6.662 6.662 0 01-6.304 4.508h-95.821c-4.627 0-7.846-4.602-6.258-8.948z" fill="#FFDBB9"/></g><g clip-path="url(#iclip1_2145_10)"><rect y="189.222" width="254.072" height="254.072" rx="127.036" fill="#0379F7"/><rect x="101.476" y="294.763" width="200.515" height="161.665" rx="6.893" fill="#E6F2FF" stroke="#024A97" stroke-width="3.76"/><path stroke="#0379F7" stroke-width="7.519" d="M120.901 374.342h161.665M120.901 393.14h97.751m-97.751 18.799h139.107m-139.107 18.798h68.927"/><path d="M133.559 337.591c-3.426 0-6.225-1.086-8.397-3.258-2.172-2.172-3.258-5.159-3.258-8.96 0-2.549.501-4.742 1.504-6.58 1.002-1.838 2.381-3.237 4.135-4.198 1.796-.961 3.802-1.441 6.016-1.441s4.198.48 5.952 1.441c1.797.961 3.196 2.36 4.199 4.198 1.002 1.838 1.504 4.031 1.504 6.58 0 3.801-1.087 6.788-3.259 8.96-2.172 2.172-4.971 3.258-8.396 3.258zm25.753-23.811h10.59l-29.952 43.863h-10.59l29.952-43.863zm-25.753 17.044c.793 0 1.441-.418 1.942-1.253.543-.877.815-2.277.815-4.198 0-1.922-.272-3.301-.815-4.136-.501-.877-1.149-1.316-1.942-1.316-.794 0-1.462.439-2.006 1.316-.501.835-.751 2.214-.751 4.136 0 1.921.25 3.321.751 4.198.544.835 1.212 1.253 2.006 1.253zm32.145 27.445c-3.426 0-6.225-1.086-8.397-3.258-2.172-2.172-3.258-5.159-3.258-8.96 0-2.549.501-4.742 1.504-6.58 1.002-1.838 2.381-3.237 4.135-4.198 1.796-.961 3.802-1.441 6.016-1.441s4.198.48 5.952 1.441c1.797.961 3.196 2.36 4.199 4.198 1.002 1.838 1.503 4.031 1.503 6.58 0 3.801-1.086 6.788-3.258 8.96-2.172 2.172-4.971 3.258-8.396 3.258zm0-6.767c.793 0 1.441-.418 1.942-1.253.543-.877.815-2.277.815-4.198 0-1.922-.272-3.301-.815-4.136-.501-.877-1.149-1.316-1.942-1.316-.794 0-1.463.439-2.006 1.316-.501.835-.751 2.214-.751 4.136 0 1.921.25 3.321.751 4.198.543.835 1.212 1.253 2.006 1.253z" fill="#024A97"/></g><g clip-path="url(#iclip2_2145_10)"><rect x="115.487" width="286.053" height="286.053" rx="143.027" fill="#E83725"/><path fill-rule="evenodd" clip-rule="evenodd" d="M406.257 255.178c.085-.284.169-.559.253-.824a2.665 2.665 0 01-.253.824z" fill="#8A1A0F"/><path d="M295.288 70.891c-7.987-3.1-27.395-2.646-41.128 23.961-17.166 33.26-.357 48.638-17.523 63.3-17.166 14.663-25.392 15.736-21.1 43.989 4.291 28.252-15.378 23.603-10.371 45.061 2.334 10.006 5.512 13.126 8.299 13.257-5.944 4.32-12.06 12.109-8.299 22.505 6.079 16.809 19.311 25.034 31.471 18.239 12.159-6.795 12.517-13.232 12.159-30.398-.358-17.166 19.312-9.298 25.034-26.464 4.578-13.733 8.821-45.476 10.371-56.801-10.252-7.272-27.251-23.809-13.232-54.422h13.232l11.087-18.954v18.954l3.576-1.788 2.861-22.53 10.013 24.318 11.802-1.788c.954-2.861 2.575-10.299 1.431-17.166 3.218 1.073 9.155 6.008 7.152 17.166h16.809c2.026 2.385 6.294 8.798 7.152 15.378 1.073 8.226-20.027 37.194-5.722 63.3 11.444 20.886 25.511 26.107 31.114 26.107-.239 6.318 1.788 19.455 11.801 21.458 8.675 1.735 12.072-.52 12.98-2.395.085-.284.169-.559.253-.824a2.665 2.665 0 01-.253.824c-2.207 7.422-4.572 21.455 2.041 24.21 6.866 2.861 10.49 3.576 11.444 3.576-.835 3.577-.644 11.015 6.795 12.16 9.298 1.43 31.113-15.021 25.034-24.319-4.864-7.439-7.987-5.722-8.941-3.934 3.338-6.914 5.722-21.744-11.444-25.749 5.96-4.411 12.66-17.667-8.225-35.405 5.483-3.1 13.875-12.374 3.576-24.676-10.3-12.303-14.782-15.14-15.736-15.021 4.173-17.762 5.222-57.935-23.961-76.532-5.126-2.861-16.165-9.87-19.312-15.02-3.934-6.438-30.398-20.385-55.79-8.584-2.741 2.103-9.87 6.047-16.45 5.007z" fill="#8A1A0F"/><path d="M368.161 102.424c9.418 11.921 24.319 44.203 8.583 77.963" stroke="#8A1A0F" stroke-width="1.412" stroke-linecap="round"/><path d="M378.532 105.285c5.365 4.292 15.664 19.741 13.948 47.207-1.717 27.466 3.814 34.094 6.795 33.975M263.018 90.98c-9.536 4.53-25.749 19.312-14.305 42.2" stroke="#FCA49C" stroke-width="1.412" stroke-linecap="round"/><path d="M372.81 189.685c-3.815 7.868-6.294 24.605 14.305 28.611" stroke="#8A1A0F" stroke-width="1.412" stroke-linecap="round"/><path d="M350.279 84.543c-1.907 3.457-3.719 12.66 4.292 21.815 10.013 11.444 21.1 17.166 16.451 49.353m-119.09 10.729c-4.53-.716-13.876 2.646-15.021 21.815-1.43 23.961-6.795 40.054-12.517 40.054m-1.43 12.517c-3.218 2.742-7.725 10.586 0 20.027" stroke="#631008" stroke-width="1.412" stroke-linecap="round"/><path d="M228.686 252.986c4.53 4.053 10.085 13.875-3.934 20.742" stroke="#FCA49C" stroke-width="1.412" stroke-linecap="round"/><path d="M195.986 176.32c10.872 14.592 25.749 23.246 31.829 25.75l-7.868 21.815c-18.954-10.371-32.186-36.478-32.902-38.982-.572-2.002-2.145-3.457-2.861-3.934-3.934-5.006-12.23-15.878-13.947-19.311-1.717-3.434.926-3.815 2.462-3.577a16.468 16.468 0 01-.674-2.145c-.683-2.734 3.219-3.577 5.05-1.789-10.453-19.334-5.007-22.038 5.219-2.503-3.151-16.965-1.503-26.588 4.907-4.874 1.102 3.732 2.705 9.869 3.063 12.546-.244-7.344 2.19-10.276 5.007-1.235.842 2.704 1.311 12.994.715 18.239z" fill="#FFE8E5"/><path d="M190.622 160.942c-.467-.467-.544-1.055-.358-1.626m0 0c-.244-7.344 2.19-10.276 5.007-1.235.842 2.704 1.311 12.994.715 18.239 10.872 14.592 25.749 23.246 31.829 25.75l-7.868 21.815c-18.954-10.371-32.186-36.478-32.902-38.982-.572-2.002-2.145-3.457-2.861-3.934-3.934-5.006-12.23-15.878-13.947-19.311-1.717-3.434.926-3.815 2.462-3.577m17.565 1.235c-.358-2.677-1.961-8.814-3.063-12.546-6.41-21.714-8.058-12.091-4.907 4.874m.818 3.219c-.384-.512-.722-1.846-.818-3.219m0 0c-10.226-19.535-15.672-16.831-5.219 2.503m.315 1.789a18.38 18.38 0 01-.315-1.789m0 0c-1.831-1.788-5.733-.945-5.05 1.789.224.893.452 1.596.674 2.145m1.472 1.788c-.202-.224-1.275-.94-1.472-1.788" stroke="#FDB2AA" stroke-width="1.412"/><path d="M241.561 240.111c4.053.477 12.66-1.073 14.663-11.087" stroke="#8A1A0F" stroke-width="1.412" stroke-linecap="round"/><path d="M265.164 174.665c-5.245 5.722-13.947 21.529-6.795 38.981" stroke="#FCA49C" stroke-width="1.412" stroke-linecap="round"/><path d="M294.502 203.633c-38.052 2.289-55.909-6.676-60.082-11.444-14.591 15.735-17.762 36.12-17.523 44.346 24.032 7.438 42.915 4.291 49.352 1.788l-13.59 57.578c36.335 21.744 104.308 7.391 133.753-2.504-2.575-40.34-9.417-56.147-12.517-59.008 22.888 8.869 36.24 5.126 40.054 2.146l-18.954-52.214c-25.749 15.02-54.002 18.239-63.658 19.312-9.655 1.073-21.815.715-25.391 0-2.861-.572-8.822-.238-11.444 0z" fill="#E83725"/><path d="M304.146 203.991v-4.292l21.457 4.292c.239 1.907-1.001 6.222-7.867 6.794-6.867.573-11.921-4.291-13.59-6.794z" fill="#FFE8E5"/><path d="M304.146 200.057v-6.08l19.669-4.649 1.788 15.02c-7.438.572-17.404-2.622-21.457-4.291z" fill="#FCA49C"/><path d="M305.219 193.981h-.007l-.008.001c-23.864.967-39.688-16.994-40.044-38.274.002-26.273 21.141-47.566 47.211-47.566 26.072 0 47.212 21.295 47.212 47.569 0 13.083-7.023 22.636-17.339 28.935-10.326 6.306-23.938 9.335-37.025 9.335z" fill="#FFE8E6" stroke="#FDB2AA" stroke-width=".706"/><path d="M303.43 178.599c2.861.596 9.585.644 13.59-3.934l-2.503-2.146" stroke="#FCA49C" stroke-width="1.059"/><circle opacity=".8" cx="334.186" cy="160.002" r="5.722" fill="#FCA49C"/><ellipse opacity=".8" cx="283.403" cy="160.002" rx="7.153" ry="5.722" fill="#FCA49C"/><path d="M308.395 147.843c-.12 2.503-1.639 7.078-5.365 8.941-3.576 1.788 3.219 5.006 4.292 3.576" stroke="#FCA49C" stroke-width="1.059"/><path d="M283.403 144.267c1.311 2.384 5.579 5.936 12.159 1.073m22.888-1.494c1.505 2.267 6.053 5.453 12.207.059" stroke="#000" stroke-width="1.412"/><circle cx="357.79" cy="137.829" r="10.014" fill="#FFE8E5"/><path d="M284.201 135.979h-13.233c-9.683-5.343-21.611-20.322 8.143-37.489 37.193-21.457 74.744 1.43 78.321 16.451 2.861 12.017-4.475 17.84-8.501 19.25h-16.808c2.002-11.158-3.934-16.093-7.153-17.166 1.145 6.867-.477 14.305-1.43 17.166l-11.802 1.788-10.014-24.318-2.861 22.53-3.576 1.788v-18.954l-11.086 18.954z" fill="#8A1A0F"/><path d="M312.013 97.418c.358 7.748 3.505 24.461 13.232 29.325m-28.252-23.603c1.073 5.602.787 18.31-8.941 24.318" stroke="#FCA49C" stroke-width="1.412" stroke-linecap="round"/><path d="M325.961 82.397c-.715 10.61 1.645 33.903 16.809 42.2m-53.645-33.974c-7.391 3.099-23.46 16.951-28.61 47.564" stroke="#631008" stroke-width="1.412" stroke-linecap="round"/><path d="M290.556 203.991c3.719-.859 10.609-.835 13.59-.716 1.073 2.265 4.863 6.938 11.444 7.51 8.211.415 10.004-4.396 10.013-6.795 8.869-1.43 12.756-1.072 13.59-.715 4.057.716 9.108 14.545 0 16.451-15.378 3.219-19.789-6.676-23.603-8.941-1.192 1.669-3.934 11.802-19.312 9.299-15.215-2.477-10.371-15.021-5.722-16.093z" fill="#fff"/><path d="M362.797 132.823c-1.244.355-3.413 2.046-4.439 6.079m-.568 5.007c0-1.97.217-3.626.568-5.007m0 0c1.122-1.192 4.009-3.218 6.584-1.788" stroke="#8A1A0F" stroke-width=".706"/><path d="M187.559 162.148c-.477.596-1.359 2.361-1.073 4.649m-6.08-3.934c.835.12 2.575 1.002 2.862 3.577" stroke="#FDB2AA" stroke-width="1.412"/></g><defs><clipPath id="iclip0_2145_10"><rect x="139.473" y="342.909" width="222.091" height="222.091" rx="111.046" fill="#fff"/></clipPath><clipPath id="iclip1_2145_10"><rect y="189.222" width="254.072" height="254.072" rx="127.036" fill="#fff"/></clipPath><clipPath id="iclip2_2145_10"><rect x="115.487" width="286.053" height="286.053" rx="143.027" fill="#fff"/></clipPath></defs></svg><svg fill="none" viewBox="0 0 24 24" id="inst2" xmlns="http://www.w3.org/2000/svg"><path d="M20.947 8.305a6.531 6.531 0 00-.419-2.216 4.61 4.61 0 00-2.633-2.633 6.606 6.606 0 00-2.186-.42c-.962-.043-1.267-.055-3.709-.055s-2.755 0-3.71.055a6.606 6.606 0 00-2.185.42 4.607 4.607 0 00-2.633 2.633 6.554 6.554 0 00-.419 2.185c-.043.963-.056 1.268-.056 3.71s0 2.754.056 3.71c.015.748.156 1.486.42 2.187a4.61 4.61 0 002.633 2.632 6.586 6.586 0 002.185.45c.963.043 1.268.056 3.71.056s2.755 0 3.71-.056a6.593 6.593 0 002.186-.419 4.616 4.616 0 002.633-2.633c.263-.7.404-1.438.42-2.187.042-.962.055-1.267.055-3.71-.002-2.442-.002-2.752-.058-3.709zm-8.953 8.297a4.622 4.622 0 01-4.623-4.623 4.622 4.622 0 114.623 4.623zm4.807-8.339a1.077 1.077 0 11-.002-2.154 1.077 1.077 0 01.002 2.154z" fill="#516176"/><path d="M11.994 14.982a3.003 3.003 0 100-6.006 3.003 3.003 0 000 6.006z" fill="#516176"/></svg><svg viewBox="0 0 256 256" id="insta2" xmlns="http://www.w3.org/2000/svg"><path fill="currentColor" d="M160 128a32 32 0 11-32-32 32.037 32.037 0 0132 32zm68-44v88a56.064 56.064 0 01-56 56H84a56.064 56.064 0 01-56-56V84a56.064 56.064 0 0156-56h88a56.064 56.064 0 0156 56zm-52 44a48 48 0 10-48 48 48.054 48.054 0 0048-48zm16-52a12 12 0 10-12 12 12 12 0 0012-12z"/></svg><svg fill="none" viewBox="0 0 24 24" id="instagram" xmlns="http://www.w3.org/2000/svg"><path d="M20.947 8.305a6.531 6.531 0 00-.419-2.216 4.61 4.61 0 00-2.633-2.633 6.606 6.606 0 00-2.186-.42c-.962-.043-1.267-.055-3.709-.055s-2.755 0-3.71.055a6.606 6.606 0 00-2.185.42 4.607 4.607 0 00-2.633 2.633 6.554 6.554 0 00-.419 2.185c-.043.963-.056 1.268-.056 3.71s0 2.754.056 3.71c.015.748.156 1.486.42 2.187a4.61 4.61 0 002.633 2.632 6.586 6.586 0 002.185.45c.963.043 1.268.056 3.71.056s2.755 0 3.71-.056a6.593 6.593 0 002.186-.419 4.616 4.616 0 002.633-2.633c.263-.7.404-1.438.42-2.187.042-.962.055-1.267.055-3.71-.002-2.442-.002-2.752-.058-3.709zm-8.953 8.297a4.622 4.622 0 01-4.623-4.623 4.622 4.622 0 114.623 4.623zm4.807-8.339a1.077 1.077 0 11-.002-2.154 1.077 1.077 0 01.002 2.154z" fill="currentColor"/><path d="M11.994 14.982a3.003 3.003 0 100-6.006 3.003 3.003 0 000 6.006z" fill="currentColor"/></svg><svg fill="none" viewBox="0 0 90 70" id="logo" xmlns="http://www.w3.org/2000/svg"><path fill-rule="evenodd" clip-rule="evenodd" d="M5.207 39.337v4.575c0 1.218.035 2.436-.026 3.654a2.57 2.57 0 01-.818 1.656 2.509 2.509 0 01-1.708.662 2.507 2.507 0 01-1.678-.626 2.568 2.568 0 01-.848-1.595 9.849 9.849 0 01-.005-1.095V17.532c0-2.447.91-3.342 3.41-3.327 3.315 0 6.635-.05 9.944.128a12.445 12.445 0 017.323 2.968 12.718 12.718 0 014.122 6.812c1.54 7.287-3.426 14.17-10.92 15.025-2.02.225-4.102.148-6.159.194-.828.026-1.657.005-2.637.005zm.166-4.524h7.019a6.407 6.407 0 003.946-1.29 8.028 8.028 0 002.886-3.571 8.146 8.146 0 00.474-4.59c-.495-3.358-3.153-6.244-6.3-6.515-2.638-.24-5.316-.046-8.025-.046v16.012zm16.149-19.518c.834-1.136 1.809-1.535 2.946-1.156.531.187.986.548 1.291 1.027.306.478.445 1.046.396 1.613v4.555a14.552 14.552 0 00-2.02-3.444 15.205 15.205 0 00-2.613-2.595z" fill="#0379F7"/><path fill-rule="evenodd" clip-rule="evenodd" d="M44.083 29.128a12.647 12.647 0 011.404 4.544h6.68a5.74 5.74 0 014.074 1.838 5.86 5.86 0 011.202 1.956 5.912 5.912 0 01-.172 4.514 5.84 5.84 0 01-1.347 1.856 5.759 5.759 0 01-1.95 1.185 5.704 5.704 0 01-2.252.33h-3.94a2.274 2.274 0 00-1.565.694c-.413.427-.648 1-.654 1.598.026.597.275 1.161.698 1.578.422.416.986.654 1.576.664 3.926 0 4.133 0 6.063-.18a10.188 10.188 0 004.969-2.05 10.373 10.373 0 003.267-4.31 9.834 9.834 0 00-1.01-9.775 16.932 16.932 0 00-2.76-2.523 10.786 10.786 0 003.169-4.636c1.793-5.69-2.764-11.996-8.787-12.098-3.683-.067-7.372-.005-11.055-.03-2.022 0-3.032.946-3.067 2.932v6.57a13.805 13.805 0 014.815 4.32c.086.122.156.24.434.696v-10h7.433c3.097.03 5.204 2.144 5.214 5.205 0 2.896-2.198 5.086-5.204 5.117l-7.235.005z" fill="#E83725"/><path fill-rule="evenodd" clip-rule="evenodd" d="M43.486 34.051c-.631-7.41-9.095-12.031-15.8-8.74a.949.949 0 00-.465.706c.114 2.303-.323 4.6-1.273 6.695a14.302 14.302 0 01-4.183 5.34 1.49 1.49 0 00-.576.943v8.372c-.001.172.016.343.05.512.002.01.002.02 0 .03a2.52 2.52 0 00.865 1.405 2.478 2.478 0 001.586.555h.045a2.426 2.426 0 001.551-.566c.437-.365.735-.872.844-1.435.032-.168.05-.34.05-.512v-9.268a28.534 28.534 0 01.127-4.001c.505-3.107 3.608-5.261 6.67-4.939a6.245 6.245 0 014.03 1.991 6.399 6.399 0 011.69 4.207v12.02c0 .664.26 1.3.723 1.77a2.452 2.452 0 003.494 0c.463-.47.724-1.106.724-1.77v-3.74c.01-3.06.121-6.402-.152-9.575z" fill="#0379F7"/></svg></svg>